<svg width="86" height="86" viewBox="0 0 86 86" fill="none" xmlns="http://www.w3.org/2000/svg">
<g clip-path="url(#clip0_5559_1733)">
<mask id="mask0_5559_1733" style="mask-type:luminance" maskUnits="userSpaceOnUse" x="-1" y="13" width="61" height="60">
<path d="M-0.666992 13H59.333V73H-0.666992V13Z" fill="white"/>
</mask>
<g mask="url(#mask0_5559_1733)">
<path d="M20.3486 27.2188H38.3186C39.3499 27.2188 40.1936 26.375 40.1936 25.3438V21.9059C40.1936 20.8747 39.3499 20.0309 38.3186 20.0309H37.5752H36.1305C35.6139 20.0309 35.193 19.6297 35.193 19.1375V18.0781C35.193 17.0469 34.3493 16.2031 33.318 16.2031H25.3493C24.318 16.2031 23.4743 17.0469 23.4743 18.0781V19.1684C23.4574 19.6447 23.0477 20.0309 22.5443 20.0309H21.0996H20.3486C19.3174 20.0309 18.4736 20.8747 18.4736 21.9059V25.3438C18.4736 26.375 19.3174 27.2188 20.3486 27.2188Z" fill="#E71316"/>
<path d="M40.5381 39.2543H18.1553C17.2487 39.2543 16.5146 38.5193 16.5146 37.6137C16.5146 36.708 17.2487 35.973 18.1553 35.973H40.5381C41.4447 35.973 42.1787 36.708 42.1787 37.6137C42.1787 38.5193 41.4447 39.2543 40.5381 39.2543ZM16.5146 45.0433C16.5146 44.1368 17.2487 43.4027 18.1553 43.4027H36.2668C37.1734 43.4027 37.9075 44.1368 37.9075 45.0433C37.9075 45.949 37.1734 46.684 36.2668 46.684H18.1553C17.2487 46.684 16.5146 45.949 16.5146 45.0433ZM39.144 54.1127H18.1553C17.2487 54.1127 16.5146 53.3787 16.5146 52.4721C16.5146 51.5665 17.2487 50.8315 18.1553 50.8315H39.144C40.0497 50.8315 40.7847 51.5665 40.7847 52.4721C40.7847 53.3787 40.0497 54.1127 39.144 54.1127ZM36.2668 61.5433H18.1553C17.2487 61.5433 16.5146 60.8083 16.5146 59.9027C16.5146 58.9962 17.2487 58.2621 18.1553 58.2621H36.2668C37.1734 58.2621 37.9075 58.9962 37.9075 59.9027C37.9075 60.8083 37.1734 61.5433 36.2668 61.5433ZM45.2996 22.3165H43.0056V25.3436C43.0056 27.9283 40.9028 30.0311 38.3181 30.0311H20.3481C17.7634 30.0311 15.6606 27.9283 15.6606 25.3436V22.3165H13.3665C11.6687 22.3165 10.2803 23.7058 10.2803 25.4027V67.3137C10.2803 69.0115 11.6687 70.3999 13.3665 70.3999H45.2996C46.9975 70.3999 48.3859 69.0115 48.3859 67.3137V25.4027C48.3859 23.7058 46.9975 22.3165 45.2996 22.3165Z" fill="#E71316"/>
</g>
</g>
<defs>
<clipPath id="clip0_5559_1733">
<rect width="85.3333" height="85.3333" fill="white" transform="translate(0.333008)"/>
</clipPath>
</defs>
</svg>
