<svg width="40" height="40" viewBox="0 0 40 40" fill="none" xmlns="http://www.w3.org/2000/svg">
<path fill-rule="evenodd" clip-rule="evenodd" d="M20 40C8.95431 40 0 31.0457 0 20C0 8.95431 8.95431 0 20 0C31.0457 0 40 8.95431 40 20C40 31.0457 31.0457 40 20 40Z" fill="#0066FF"/>
<path d="M22.0203 30.8332V21.3301H25.2091L25.6865 17.6266H22.0203V15.2621C22.0203 14.1898 22.318 13.459 23.8552 13.459L25.8158 13.4581V10.1458C25.4765 10.1008 24.3128 10 22.9589 10C20.1323 10 18.1971 11.7258 18.1971 14.8955V17.6267H15V21.3302H18.197V30.8333L22.0203 30.8332Z" fill="white"/>
</svg>
