<svg width="70" height="70" viewBox="0 0 70 70" fill="none" xmlns="http://www.w3.org/2000/svg">
<mask id="mask0_5559_1777" style="mask-type:luminance" maskUnits="userSpaceOnUse" x="-1" y="0" width="71" height="70">
<path d="M-0.666992 0H69.333V70H-0.666992V0Z" fill="white"/>
</mask>
<g mask="url(#mask0_5559_1777)">
<path d="M39.0251 13.3151C37.9073 12.9771 36.5466 12.7835 35.2987 12.7835C34.112 12.7835 32.4473 12.9563 31.2671 13.7777C30.0071 14.6538 21.816 20.8915 21.7329 20.9538C20.882 21.5926 20.4007 22.3801 20.3329 23.2354C20.2706 24.0481 20.5888 24.8804 21.2079 25.5191C21.9156 26.2509 22.9448 26.3602 23.4938 26.3602C24.3841 26.3602 25.1749 26.0956 25.561 25.8331C26.9326 24.9012 29.551 22.6907 29.5773 22.6688C31.592 21.1124 33.0084 20.2287 34.404 20.2287C35.9188 20.2287 36.971 21.1945 38.5624 22.6557L39.2438 23.2781C45.1041 28.5827 51.6623 33.9356 54.5006 35.7282C56.6651 37.0976 58.5048 37.324 60.4396 36.4457C61.529 35.854 64.3771 32.7116 65.9007 30.7779C67.1607 29.1843 67.0141 28.5609 66.3076 27.3085C65.5791 26.0081 62.0956 19.9377 59.6127 16.1381C58.741 14.8092 58.006 14.6976 57.3268 14.6976C56.9834 14.6976 56.6071 14.7402 56.2101 14.7851L56.0941 14.7982C53.981 15.0356 52.0724 15.2313 50.1004 15.2313C46.7798 15.2313 43.4679 14.6582 39.0251 13.3151Z" fill="#E71316"/>
<path d="M56.2717 40.1121L52.9413 37.4204C50.1774 35.5971 44.7403 31.1958 39.5166 26.5671L38.437 25.6943C37.4341 24.7854 36.4508 23.9377 35.5845 23.194C35.3647 23.0047 35.1689 22.8341 34.9633 22.6558C34.7981 22.5738 34.6472 22.5311 34.5017 22.5147L34.4974 22.5104C34.4656 22.5071 34.435 22.4994 34.4044 22.4994C33.7777 22.4994 32.7594 23.078 31.0039 24.4343C30.9569 24.4747 29.8391 25.4175 28.66 26.3494C28.0158 26.8558 27.3552 27.359 26.8367 27.7111C25.9891 28.2875 24.7389 28.6299 23.4931 28.6299C21.9247 28.6299 20.5345 28.0863 19.5775 27.0997C18.5056 25.9929 17.9544 24.5196 18.0692 23.0572C18.1884 21.5544 19.0033 20.1643 20.3639 19.1427C20.482 19.0541 21.5703 18.2239 22.978 17.1575L13.4831 15.1997C13.2316 15.145 12.992 15.1188 12.7569 15.1188C12.3981 15.1188 11.9705 15.1811 11.5516 15.3846C11.2759 15.6165 11.0025 15.9336 10.7214 16.3668C9.68126 17.9549 8.0636 20.3524 6.48641 22.6941L1.90469 29.9347C1.21563 31.2221 1.30532 31.9735 2.32797 33.0804C3.34188 34.1818 7.00813 37.9388 17.0159 46.4525C17.5759 46.5565 18.1338 46.761 18.6566 47.0683C19.6628 47.6611 20.4536 48.5536 20.9217 49.5872C21.6239 49.6266 22.3338 49.8475 22.9813 50.2304C23.8661 50.7488 24.577 51.5166 25.0408 52.4047C25.1217 52.4025 25.2027 52.4015 25.2814 52.4025C25.9738 52.419 26.6803 52.6235 27.3256 53.0041C28.8449 53.8988 29.7209 55.698 29.6991 57.3069L33.2516 60.4635C33.7645 60.9185 34.4033 61.1438 35.0399 61.1438C35.7825 61.1438 36.5197 60.8375 37.0524 60.2393C37.9908 59.1838 37.935 57.599 36.9725 56.5971L32.7517 53.213C32.2628 52.8204 32.1841 52.1061 32.5756 51.6172C32.9672 51.1283 33.6792 51.0496 34.1725 51.44L41.0216 56.9307C41.3136 57.0204 41.6133 57.0707 41.913 57.0707C42.8175 57.0707 43.7166 56.6725 44.3225 55.9091C45.1811 54.8285 45.1822 53.3585 44.4483 52.2757L38.6602 47.6349C38.1713 47.2433 38.0936 46.5269 38.4852 46.038C38.8767 45.5502 39.5899 45.4715 40.0809 45.863L47.5042 51.8141C47.8695 51.9596 48.2524 52.0394 48.6374 52.0394C49.543 52.0394 50.4399 51.6413 51.0469 50.8768C51.9317 49.7622 51.9099 48.2299 51.1005 47.1405L43.2134 40.928C42.7202 40.5419 42.6349 39.8266 43.0231 39.3344C43.4103 38.8433 44.1234 38.758 44.6167 39.1441L53.2781 45.9636C53.5647 46.0424 53.8589 46.0916 54.1542 46.0916C55.1353 46.0916 56.1077 45.664 56.7716 44.8415C57.9397 43.3977 57.7155 41.2791 56.2717 40.1121Z" fill="#E71316"/>
<path d="M15.6258 53.9495C16.141 54.2524 16.7043 54.4132 17.2544 54.4132C17.4655 54.4132 17.6722 54.388 17.8691 54.341L17.9139 54.3312L17.9271 54.376C18.194 55.3276 18.8393 56.161 19.6979 56.6641C20.2097 56.9682 20.7697 57.1268 21.3166 57.1268C21.6929 57.1268 22.0538 57.048 22.359 56.896L22.406 56.873L22.4257 56.9245C22.686 57.6463 23.1541 58.2096 23.8136 58.599C24.2129 58.833 24.6755 58.9566 25.1535 58.9566C25.2705 58.9709 25.3799 58.9785 25.4893 58.9785C26.4299 58.9785 27.3136 58.4535 27.6877 57.6715C27.8616 57.3105 27.9075 56.9048 27.8244 56.4662C27.5761 55.6677 27.0271 54.9721 26.3238 54.5565C25.9005 54.3071 25.4652 54.1759 25.0288 54.1638H24.9872C24.5825 54.1638 24.2085 54.2754 23.899 54.4821L23.8377 54.5248L23.8246 54.4504C23.6539 53.3741 22.9463 52.3504 21.9794 51.7805C21.5004 51.4984 21.0082 51.3529 20.5182 51.342H20.4624C20.19 51.342 19.9199 51.3879 19.6574 51.4809L19.6027 51.5005L19.5929 51.4426C19.4255 50.3084 18.6829 49.2255 17.6536 48.6207C17.4732 48.5124 17.2861 48.4435 17.121 48.3812C16.6408 48.2204 16.1596 48.1745 15.7308 48.251L15.7079 48.2554L15.6914 48.2401C13.5477 46.4168 11.5899 44.7237 9.86723 43.2055L8.73629 46.6815C8.45411 47.5477 8.52739 48.473 8.94192 49.2846C9.35536 50.0984 10.0608 50.6999 10.9282 50.981C11.2694 51.0926 11.6829 51.1473 12.1521 51.1473C12.91 51.1473 13.6002 51.0018 13.8507 50.8979L13.9108 50.8727L13.9174 50.9384C14.0213 52.2563 14.66 53.3807 15.6258 53.9495Z" fill="#E71316"/>
</g>
</svg>
