<svg width="70" height="70" viewBox="0 0 70 70" fill="none" xmlns="http://www.w3.org/2000/svg">
<mask id="mask0_5559_1763" style="mask-type:luminance" maskUnits="userSpaceOnUse" x="-1" y="0" width="71" height="70">
<path d="M-0.666992 0H69.333V70H-0.666992V0Z" fill="white"/>
</mask>
<g mask="url(#mask0_5559_1763)">
<path d="M35.7682 13.1708L27.4601 28.7086C27.2293 29.1428 26.7831 29.39 26.3237 29.39C26.1192 29.39 25.9103 29.3408 25.7178 29.2379C25.0889 28.9022 24.8526 28.1212 25.1884 27.4934L33.4954 11.9556C33.8301 11.3267 34.6111 11.0915 35.24 11.4262C35.8667 11.762 36.104 12.5429 35.7682 13.1708ZM54.5359 58.1305H47.8804L47.4068 58.0911C52.9653 54.3975 56.637 48.0811 56.637 40.9039C56.637 31.2559 50.01 23.1862 41.0729 20.9309L44.3717 14.7272C45.285 13.1697 44.4843 11.2873 43.3031 10.7503L36.0461 7.20763C34.8648 6.56342 32.9846 6.88607 32.1261 8.44357L21.5856 28.41C20.7073 30.2223 21.3843 32.3639 23.0895 33.1897C23.0895 33.1897 22.5218 34.278 22.2036 34.8708C21.7737 35.6736 21.9914 36.3834 22.7395 36.8012C23.4854 37.2201 25.7123 38.2855 26.4987 38.63C27.2851 38.98 28.0026 38.6814 28.3789 37.9836C28.6654 37.4575 29.279 36.1909 29.279 36.1909C30.9918 37.0167 33.0864 36.2172 33.9657 34.3983L37.6987 27.3217C44.48 28.1683 49.7628 33.894 49.7628 40.9039C49.7628 48.4836 43.5929 54.6534 36.0143 54.6534C32.5548 54.6534 28.1043 53.3376 25.7003 51.2158V49.4975C25.7003 48.6914 26.2537 48.0242 26.9986 47.8361H34.5968C35.5462 47.8361 36.3151 47.0672 36.3151 46.1178C36.3151 45.1684 35.5462 44.3995 34.5968 44.3995H10.3189C9.36949 44.3995 8.60059 45.1684 8.60059 46.1178C8.60059 47.0672 9.36949 47.8361 10.3189 47.8361H17.5289C18.2748 48.0242 18.8261 48.6914 18.8261 49.4975V51.2158V56.083C18.8261 56.083 18.9617 58.1064 17.2751 58.1305H14.2542C12.8596 58.1305 11.7287 59.2614 11.7287 60.6559C11.7287 61.0497 11.8272 61.4183 11.989 61.7508C12.0175 61.8448 12.0656 61.9323 12.1312 62.0144C12.5807 62.7144 13.3617 63.1814 14.2542 63.1814H54.5359C55.9304 63.1814 57.0614 62.0505 57.0614 60.6559C57.0614 59.2614 55.9304 58.1305 54.5359 58.1305Z" fill="#E71316"/>
</g>
</svg>
