<svg width="62" height="62" viewBox="0 0 62 62" fill="none" xmlns="http://www.w3.org/2000/svg">
<mask id="mask0_5559_1750" style="mask-type:luminance" maskUnits="userSpaceOnUse" x="-1" y="0" width="63" height="62">
<path d="M-0.666992 0H61.333V62H-0.666992V0Z" fill="white"/>
</mask>
<g mask="url(#mask0_5559_1750)">
<path d="M22.3267 43.2647C25.1758 44.7604 27.0465 45.393 30.0971 45.393C34.8159 45.393 37.3772 43.4933 37.3772 40.2432C37.3772 38.8327 36.9742 37.6246 36.1402 36.8186C35.4204 36.1279 34.3838 35.6968 32.456 35.4091L27.5638 34.6883C24.0531 34.171 21.5217 33.1064 19.622 31.2648C17.6361 29.337 16.6876 26.6603 16.6876 23.2358C16.6876 17.0203 20.6004 12.3587 27.2761 11.1216V9.76821C27.2761 8.27246 27.3342 7.69703 27.7081 6.97725C28.1983 6.086 29.1758 5.50959 30.4139 5.50959C31.65 5.50959 32.6294 6.086 33.1186 6.97725C33.4916 7.69703 33.5497 8.27246 33.5497 9.76821V10.9201C36.082 11.1787 38.0961 11.8123 40.2263 12.7897C42.1542 13.682 43.5065 15.0925 43.5065 16.7897C43.5065 17.5957 43.1897 18.517 42.5843 19.2649C42.0098 19.9265 41.2338 20.3586 40.1963 20.3586C39.2479 20.3586 38.1542 19.9265 37.2038 19.4373C35.0183 18.2864 33.1186 17.8263 30.7297 17.8263C26.5001 17.8263 24.428 20.1561 24.428 22.7756C24.428 24.0418 24.7438 25.1064 25.6079 25.9115C26.4711 26.6894 27.5076 27.2067 29.4064 27.4954L34.2114 28.1851C37.9527 28.7325 40.3416 29.739 42.0679 31.3791C44.2554 33.4222 45.2338 36.3866 45.2338 40.0417C45.2338 46.8326 40.3697 51.1193 33.5497 52.184V54.6301C33.5497 56.1268 33.4916 56.7303 33.1186 57.421C32.6294 58.3142 31.65 58.8896 30.4139 58.8896C29.1758 58.8896 28.1983 58.3142 27.7081 57.421C27.3342 56.7303 27.2761 56.1268 27.2761 54.6301V52.3864C24.3698 52.1559 22.2396 51.5523 19.8235 50.3714C17.205 49.1343 15.7373 47.9835 15.7373 45.6807C15.7373 44.8186 16.1403 43.7529 16.831 43.0622C17.4927 42.3996 18.2406 42.171 19.0756 42.171C19.9969 42.171 20.8019 42.4587 22.3267 43.2647Z" fill="#E71316"/>
</g>
</svg>
