<svg width="190" height="42" viewBox="0 0 190 42" fill="none" xmlns="http://www.w3.org/2000/svg">
<path fill-rule="evenodd" clip-rule="evenodd" d="M18.9504 4.9499V0.899902H0.791504V4.9999H7.02588V22.7499H12.6665V4.9499H18.9504ZM88.8149 22.6999C88.6665 21.2499 88.5675 20.1499 88.5675 19.3499V11.9999C88.5675 8.9499 86.341 7.0499 83.4217 7.0499C81.2941 7.0999 79.4634 8.0499 78.4243 9.7499C77.7811 8.0499 75.9504 7.1499 74.2186 7.1499C72.1405 7.1499 70.3592 7.8499 69.3696 9.7499L69.2707 7.4999H64.1248V22.6999H69.4686V13.4999C69.4686 12.9999 69.2707 10.3999 71.6951 10.3999C73.328 10.3999 73.7238 11.8999 73.7238 13.3499V22.6499H79.0181V13.4999C79.0181 12.9999 78.8201 10.3999 81.2446 10.3999C82.8774 10.3999 83.2733 11.8999 83.2733 13.3499V22.6499L88.8149 22.6999ZM62.9373 11.9499V7.2999C60.6118 7.2499 58.88 8.0499 58.1873 10.3499L58.0884 7.4499H52.7446C52.8436 8.6999 52.8436 10.3499 52.8436 11.3499V22.6499H58.1873V15.9999C58.1873 13.4999 58.9295 11.9499 61.8488 11.8999C62.1951 11.8999 62.5415 11.8999 62.9373 11.9499ZM98.0181 7.0499C93.1196 7.0499 89.9035 9.7999 89.9035 15.0499C89.9035 20.4499 93.1196 23.0999 98.0181 23.0999C102.917 23.0999 106.133 20.3999 106.133 15.0499C106.083 9.7999 102.867 7.0499 98.0181 7.0499ZM98.0181 10.2499C100.245 10.2499 100.69 12.5999 100.69 14.9499C100.69 17.7499 100.195 19.8999 98.0181 19.8999C95.841 19.8999 95.3462 17.6999 95.3462 14.9499C95.3462 12.5499 95.742 10.1999 98.0181 10.2499ZM35.2785 22.6999C35.13 21.2499 35.0806 20.1999 35.0806 19.3499V11.9999C35.0806 8.9499 32.854 7.0499 29.8853 7.0499C28.9946 7.0499 28.104 7.1999 27.3618 7.5499C26.6691 7.8999 26.0259 8.3499 25.4321 9.0999V0.899902H20.1873V22.6999H25.5311V13.4999C25.5311 12.9999 25.3332 10.3999 27.7576 10.3999C29.4399 10.3999 29.7863 11.8999 29.7863 13.3499V22.6499L35.2785 22.6999ZM51.5571 16.0999C51.6066 10.6499 49.9738 7.0499 43.9373 7.0499C39.1873 7.0499 36.3175 9.9999 36.3175 14.6499C36.3175 20.3499 38.3462 23.0999 44.1847 23.0999C46.0155 23.0999 47.6483 22.6999 48.8358 21.8499C50.1717 20.9499 51.2108 19.5999 51.3592 17.6999H46.4113C46.2629 19.0999 45.4712 20.0499 43.8879 20.0499C41.8592 20.0499 41.4139 18.0999 41.4634 16.1999H51.5571V16.0999ZM46.4608 13.1999H41.5129C41.6118 11.5999 42.0077 9.9499 43.9868 9.8499C44.8774 9.7999 45.4712 10.2499 45.867 10.8999C46.3123 11.5499 46.4608 12.3999 46.4608 13.1999Z" fill="white"/>
<path fill-rule="evenodd" clip-rule="evenodd" d="M189.307 11.6501V7.0001C186.982 6.9501 185.25 7.7501 184.557 10.0501L184.458 7.4001H179.115C179.214 8.6501 179.214 10.3001 179.214 11.3001V22.6001H184.557V16.0001C184.557 13.5001 185.299 11.7001 188.219 11.6001C188.565 11.6501 188.911 11.6501 189.307 11.6501ZM161.648 22.7001C161.5 21.2501 161.451 20.2001 161.451 19.3501V12.0001C161.451 8.9501 159.224 7.0501 156.255 7.0501C155.365 7.0501 154.573 7.2001 153.781 7.5501C153.089 7.9001 152.396 8.3501 151.802 9.1001V0.900098H146.458V22.7001H151.802V13.5001C151.802 13.0001 151.604 10.4001 154.029 10.4001C155.711 10.4001 156.057 11.9001 156.057 13.3501V22.6501L161.648 22.7001ZM145.172 18.1501C145.172 15.8001 143.935 14.6501 142.253 14.0001C139.036 12.8501 136.661 12.8001 136.661 11.6001C136.661 10.7001 137.156 10.2001 138.047 10.2001C138.74 10.2001 139.185 10.4001 139.482 10.7001C139.729 11.0001 139.878 11.5001 139.878 12.1501H144.924C144.826 8.1501 141.708 7.1001 138.294 7.1001C135.375 7.1001 131.615 8.1501 131.615 11.8001C131.615 17.1001 140.125 15.7501 140.125 18.5501C140.125 19.5501 139.333 20.0001 138.294 20.0001C137.701 20.0001 137.206 19.7001 136.909 19.2501C136.612 18.8501 136.513 18.3001 136.562 17.7501H131.466C131.367 22.3001 134.682 23.1001 138.393 23.1001C141.857 23.1001 145.172 21.8501 145.172 18.1501ZM177.878 16.1001C177.927 10.6501 176.294 7.0501 170.258 7.0501C165.508 7.0501 162.638 10.0001 162.638 14.6501C162.638 20.3501 164.617 23.1001 170.505 23.1001C172.336 23.1001 173.969 22.7001 175.156 21.8501C176.492 20.9501 177.531 19.6001 177.68 17.7001H172.682C172.534 19.1001 171.742 20.0501 170.159 20.0501C168.13 20.0501 167.685 18.1001 167.734 16.2001H177.927V16.1001H177.878ZM172.88 13.2001H167.932C168.031 11.6001 168.427 9.9501 170.406 9.8501C171.297 9.8001 171.891 10.2501 172.286 10.9001C172.682 11.5501 172.88 12.4001 172.88 13.2001ZM130.18 22.7001V7.4501H124.836V22.6501L130.18 22.7001ZM123.203 4.8501L124.44 0.850098H110.141V22.6501H115.781V14.1001H120.333L121.57 10.1001H115.781V4.8501H123.203ZM130.18 4.8501L131.466 0.850098H126.221L124.935 4.8501H130.18Z" fill="white"/>
<path fill-rule="evenodd" clip-rule="evenodd" d="M49.578 41.4V29.1H51.5076V41.45H49.578V41.4ZM180.896 41.6C176.838 41.6 173.771 39.3 173.771 35.3C173.771 31.25 177.185 28.75 181.044 28.75C182.43 28.75 183.914 29.2 184.903 29.85L183.914 31.05C183.073 30.55 182.133 30.25 181.094 30.25C179.609 30.25 178.174 30.7 177.234 31.75C176.443 32.65 175.997 33.75 175.997 35.35C175.997 37.1 176.541 38.05 177.432 38.95C178.372 39.9 179.807 40.15 181.193 40.15C182.331 40.15 183.419 39.75 184.31 39.25L185.25 40.4C184.211 41.1 182.528 41.6 180.896 41.6ZM160.411 41.4V29.1H162.341V41.45H160.411V41.4ZM116.276 30.55H111.724V41.45H109.844V30.55H105.291V29.05H116.523L116.276 30.55ZM14.6951 40.95C13.755 41.4 12.617 41.65 11.2316 41.65C9.49984 41.65 7.71859 41.25 6.28369 40.55L7.07536 39.15C8.51025 39.85 9.84619 40.2 11.3306 40.2C12.3201 40.2 12.9634 40.05 13.5571 39.7C14.2498 39.3 14.6457 38.8 14.6457 38.1C14.6457 37.05 13.854 36.4 11.9738 36L9.99463 35.55C8.01546 35.1 6.77848 33.85 6.77848 32.35C6.77848 30.25 8.80713 28.75 11.7759 28.75C13.5076 28.75 15.2889 29.2 16.4764 29.95L15.5858 31.25C14.3983 30.6 13.1613 30.25 11.8748 30.25C10.1431 30.25 8.90609 30.95 8.90609 32.1C8.90609 33 9.64827 33.55 11.3306 33.95L13.1613 34.4C14.2004 34.65 15.2889 35.1 15.8826 35.65C16.4764 36.2 16.8228 37.05 16.8228 37.85C16.8722 39.1 16.0806 40.3 14.6951 40.95ZM93.0207 41.4L88.1717 34.8C87.2811 33.55 85.6977 31.15 85.6977 31.15C85.6977 31.15 85.8462 33.25 85.8957 35.05L85.9451 41.4H84.0155V29.1H86.341L91.2394 35.85C92.1795 37.15 93.5155 39.25 93.5155 39.25C93.5155 39.25 93.2186 36.95 93.2186 35.35L93.1691 29.15H95.0988V41.5L93.0207 41.4ZM126.518 41.4V29.1H128.448V41.45H126.518V41.4ZM149.724 30.55H142.995V34.2H148.685V35.65H142.995V41.45H141.065V29.1H149.971L149.724 30.55ZM64.1743 41.4V29.1H73.229L72.9816 30.6H66.1535V34.3H71.9425V35.8H66.1535V40H73.4269V41.5H64.1743V41.4ZM34.4868 41.6C30.4295 41.6 27.3618 39.3 27.3618 35.3C27.3618 31.25 30.7759 28.75 34.6353 28.75C36.0207 28.75 37.505 29.2 38.4946 29.85L37.505 31.05C36.6639 30.55 35.7238 30.25 34.6847 30.25C33.2004 30.25 31.7655 30.7 30.7759 31.75C29.9842 32.65 29.5389 33.75 29.5389 35.35C29.5389 37.1 30.0832 38.05 30.9738 38.95C31.9139 39.9 33.3488 40.15 34.7342 40.15C35.8722 40.15 36.9608 39.75 37.8514 39.25L38.7915 40.4C37.8019 41.1 36.1196 41.6 34.4868 41.6Z" fill="white"/>
</svg>
