<svg width="154" height="44" viewBox="0 0 154 44" fill="none" xmlns="http://www.w3.org/2000/svg">
<path d="M129 13L137 22L129 31" stroke="#E71316" stroke-width="2"/>
<circle cx="132" cy="22" r="21" stroke="#E71316" stroke-width="2"/>
<path d="M26 13L18 22L26 31" stroke="#B8BABC" stroke-width="2"/>
<circle cx="21" cy="21" r="21" transform="matrix(-1 0 0 1 43 1)" stroke="#B8BABC" stroke-width="2"/>
<path d="M63.074 15.074H63.984V25H62.794V17.888H60.218V16.936H60.26C61.926 16.936 62.836 16.348 63.074 15.074Z" fill="#4A4A4A"/>
<path d="M74.6938 17.594C76.9198 17.594 78.2078 19.176 78.2078 21.388C78.2078 23.628 76.8218 25.168 74.6938 25.168C72.5938 25.168 71.1798 23.698 71.1798 21.388C71.1798 19.078 72.5238 17.594 74.6938 17.594ZM72.4398 21.388C72.4398 23.026 73.3778 24.118 74.6938 24.118C75.9958 24.118 76.9478 23.026 76.9478 21.388C76.9478 19.75 75.9958 18.644 74.6798 18.644C73.4198 18.644 72.4398 19.708 72.4398 21.388ZM82.0888 14.892C82.2708 14.892 82.7048 14.948 82.8728 15.004V16.04C82.6908 15.97 82.3828 15.942 82.2008 15.942C81.5428 15.942 81.2908 16.236 81.2908 16.726V17.762H82.6908V18.812H81.2908V25H80.1008V18.812H78.8828V17.762H80.1008V16.628C80.1008 15.564 80.7728 14.892 82.0888 14.892ZM91.6679 15.074H92.6199V21.626H93.9639V22.676H92.6199V25H91.4999V22.676H87.1459V21.528L91.6679 15.074ZM91.4999 16.768H91.4719L88.1679 21.626H91.4999V16.768Z" fill="#4A4A4A" fill-opacity="0.46"/>
</svg>
