<svg width="192" height="75" viewBox="0 0 192 75" fill="none" xmlns="http://www.w3.org/2000/svg">
<path d="M18.9698 55.9274C18.9698 60.4448 16.903 65.2152 11.8448 65.2152C6.18495 65.2152 4.20529 60.4448 4.20529 55.9274C4.20529 51.41 6.18495 46.6483 11.8448 46.6483C16.903 46.6483 18.9698 51.4187 18.9698 55.9274ZM21.6297 55.9274C21.6297 49.7704 18.464 44.4158 11.8448 44.4158C8.59192 44.4158 5.42622 46.0553 4.2925 49.1774H4.20529V36.6978H1.54541V66.8111H3.99599V62.6774H4.0832C4.75338 64.1562 5.85061 65.4006 7.23378 66.2507C8.61695 67.1008 10.2228 67.5177 11.8448 67.4477C18.464 67.4477 21.6297 62.0931 21.6297 55.9274Z" fill="#1C1C4C"/>
<path d="M24.5859 66.8109H27.2458V45.0435H24.5859V66.8109Z" fill="#1C1C4C"/>
<path d="M48.0105 55.9272C48.0105 60.5754 45.4814 65.2149 40.3796 65.2149C35.2779 65.2149 32.7401 60.5754 32.7401 55.9272C32.7401 51.2789 35.2692 46.6481 40.3796 46.6481C45.4901 46.6481 48.0105 51.2876 48.0105 55.9272ZM50.6267 55.9272C50.6267 49.6917 46.9988 44.4155 40.336 44.4155C33.6732 44.4155 30.0366 49.6481 30.0366 55.9272C30.0366 62.2062 33.6645 67.4475 40.336 67.4475C47.0076 67.4475 50.6267 62.2149 50.6267 55.9272Z" fill="#1C1C4C"/>
<path d="M69.4812 51.4533C69.3155 46.7266 65.8533 44.4766 61.5103 44.4766C57.6731 44.4766 53.3301 46.1597 53.3301 50.5812C53.3301 54.2963 55.9463 55.4737 59.4347 56.4068L62.8533 57.1655C65.2603 57.7585 67.6237 58.5957 67.6237 61.1248C67.6237 64.1684 64.1353 65.2673 61.676 65.2673C58.1266 65.2673 55.4754 63.4097 55.2574 59.8254H52.6411C53.0597 65.1364 56.5219 67.4998 61.5801 67.4998C65.6353 67.4998 70.301 65.6859 70.301 60.9591C70.301 57.1655 67.1353 55.3952 64.0917 54.9242L60.5074 54.0696C58.6934 53.5987 55.9987 52.7614 55.9987 50.3981C55.9987 47.5725 58.7806 46.6394 61.144 46.6394C64.1789 46.6394 66.708 48.1132 66.8388 51.4097L69.4812 51.4533Z" fill="#1C1C4C"/>
<path d="M79.0745 66.7324L78.1414 69.2179C77.2693 71.2411 76.7111 72.6365 74.3478 72.6365C73.7378 72.6245 73.1304 72.5545 72.5338 72.4272V74.6597C73.1929 74.8362 73.8758 74.9068 74.5571 74.869C77.8885 74.869 78.778 73.8138 80.2954 70.151L89.7489 45.0435H87.1326L80.4262 63.6103L73.2489 45.0435H70.4233L79.1443 66.7324H79.0745Z" fill="#1C1C4C"/>
<path d="M106.824 51.4533C106.659 46.7266 103.197 44.4766 98.8535 44.4766C95.0076 44.4766 90.6645 46.1597 90.6645 50.5812C90.6645 54.2963 93.2808 55.4737 96.7692 56.4068L100.188 57.1655C102.586 57.7585 104.949 58.5957 104.949 61.1248C104.949 64.1684 101.461 65.2673 99.0017 65.2673C95.461 65.2673 92.8012 63.4097 92.5919 59.8254H89.9756C90.4029 65.1364 93.8564 67.4998 98.9233 67.4998C102.97 67.4998 107.644 65.6859 107.644 60.9591C107.644 57.1655 104.478 55.3952 101.444 54.9242L97.8419 54.0696C96.0279 53.5987 93.3244 52.7614 93.3244 50.3981C93.3244 47.5725 96.1064 46.6394 98.4698 46.6394C101.513 46.6394 104.042 48.1132 104.165 51.4097L106.824 51.4533Z" fill="#1C1C4C"/>
<path d="M111.865 40.8923V45.0434H108.071V47.2847H111.865V62.1714C111.865 65.8865 113.042 67.0638 116.592 67.0638C117.394 67.0638 118.153 66.9853 118.955 66.9853V64.7091C118.196 64.7887 117.433 64.8295 116.67 64.8312C114.778 64.7091 114.525 63.6888 114.525 61.9621V47.2847H118.938V45.0434H114.507V39.4795L111.847 40.8923H111.865Z" fill="#1C1C4C"/>
<path d="M136.458 54.2528H122.365C122.792 50.2847 125.191 46.4911 129.542 46.4911C133.894 46.4911 136.327 50.2499 136.458 54.2528ZM129.542 44.2586C122.618 44.2586 119.714 50.0318 119.714 55.7702C119.714 61.9708 122.618 67.2906 129.542 67.2906C135.028 67.2906 137.888 64.4214 139.031 59.4417H136.414C135.542 62.7295 133.467 65.0057 129.586 65.0057C124.476 65.0057 122.452 60.3225 122.409 56.4417H139.162C139.371 50.3371 136.589 44.2324 129.569 44.2324L129.542 44.2586Z" fill="#1C1C4C"/>
<mask id="mask0_5432_780" style="mask-type:luminance" maskUnits="userSpaceOnUse" x="0" y="0" width="192" height="75">
<path d="M191.792 0H0.333008V74.8692H191.792V0Z" fill="white"/>
</mask>
<g mask="url(#mask0_5432_780)">
<path d="M141.865 66.6541H144.481V54.5059C144.481 49.9535 146.383 46.4913 150.979 46.4913C154.354 46.4913 155.583 48.9419 155.54 51.8896V66.6541H158.156V54.3402C158.156 50.2849 159.464 46.4913 164.069 46.4913C167.862 46.4913 169.214 48.4361 169.214 52.0204V66.6541H171.874V51.8896C171.874 46.7442 169.423 44.2588 164.653 44.2588C163.21 44.2105 161.784 44.5884 160.554 45.3452C159.324 46.1021 158.345 47.2044 157.737 48.5146C156.935 45.6454 154.362 44.2588 151.493 44.2588C150.016 44.2033 148.554 44.5807 147.289 45.3445C146.023 46.1083 145.008 47.2253 144.368 48.5582H144.237V44.8867H141.795V66.689L141.865 66.6541Z" fill="#1C1C4C"/>
<path d="M191.033 51.2614C190.859 46.5347 187.406 44.2847 183.054 44.2847C179.217 44.2847 174.874 45.9678 174.874 50.3893C174.874 54.1044 177.49 55.2818 180.978 56.2149L184.397 56.9736C186.804 57.5579 189.167 58.4039 189.167 60.9329C189.167 63.9765 185.679 65.0666 183.22 65.0666C179.679 65.0666 177.019 63.2178 176.81 59.6248H174.193C174.612 64.9446 178.074 67.3079 183.132 67.3079C187.188 67.3079 191.853 65.494 191.853 60.7672C191.853 56.9736 188.688 55.2033 185.653 54.7323L182.103 53.93C180.289 53.4678 177.595 52.6219 177.595 50.2672C177.595 47.4329 180.377 46.5085 182.74 46.5085C185.775 46.5085 188.304 47.9823 188.435 51.2789L191.033 51.2614Z" fill="#1C1C4C"/>
<path d="M14.9754 22.7964C14.9754 25.8313 11.6789 26.9301 9.56847 26.9301C7.88533 26.9301 5.13824 26.2935 5.13824 24.1394C5.13824 21.6104 6.9958 20.8516 9.06266 20.5115C11.1295 20.1714 13.4929 20.1801 14.9754 19.2034V22.7964ZM22.1353 30.1743V26.8429C21.7464 26.908 21.3523 26.9372 20.958 26.9301C20.0859 26.9301 19.8156 26.4592 19.8156 25.2819V14.058C19.8156 9.4621 15.3417 7.73535 11.0946 7.73535C6.28068 7.73535 1.50161 9.37489 1.17894 14.9912H5.98417C6.20219 12.6278 8.09464 11.5028 10.7981 11.5028C12.7342 11.5028 15.3068 11.965 15.3068 14.4592C15.3068 17.2848 12.2284 16.901 8.77487 17.5377C4.69347 18.026 0.333008 18.9156 0.333008 24.3574C0.333008 28.6133 3.8737 30.7237 7.79812 30.7237C10.3708 30.7237 13.4493 29.9214 15.3504 28.1074C15.7342 30.0958 17.0946 30.7237 19.0656 30.7237C20.1083 30.6744 21.1402 30.4897 22.1353 30.1743Z" fill="#1C1C4C"/>
</g>
<path d="M40.9724 19.247C40.9724 23.0493 39.3241 26.9301 34.9375 26.9301C31.0567 26.9301 28.8328 23.6336 28.8328 19.247C28.8328 14.6074 30.8997 11.529 34.9375 11.529C38.9753 11.529 40.9724 15.2877 40.9724 19.247ZM45.7863 19.3342C45.7863 12.9592 42.4462 7.73535 35.5741 7.73535C32.7921 7.73535 30.1758 8.79058 28.8241 11.276H28.7369V8.31965H24.1846V38.1888H28.9898V27.3051H29.1119C30.6293 29.7121 33.6293 30.7237 36.4113 30.7237C42.8648 30.7237 45.8212 25.1947 45.8212 19.3342H45.7863Z" fill="#1C1C4C"/>
<path d="M65.0163 19.247C65.0163 23.0493 63.3768 26.9301 58.9901 26.9301C55.1093 26.9301 52.8855 23.6336 52.8855 19.247C52.8855 14.6074 54.9524 11.529 58.9901 11.529C63.0279 11.529 65.0163 15.2877 65.0163 19.247ZM69.8303 19.3342C69.8303 12.9592 66.4989 7.73535 59.6181 7.73535C56.8361 7.73535 54.2198 8.79058 52.8681 11.276H52.7896V8.31965H48.2285V38.1888H53.0425V27.3051H53.121C54.6384 29.7121 57.6384 30.7237 60.4204 30.7237C66.8739 30.7237 69.8303 25.1947 69.8303 19.3342Z" fill="#1C1C4C"/>
<path d="M72.0366 30.1309H76.8419V0.00878906H72.0366V30.1309Z" fill="#1C1C4C"/>
<path d="M80.5566 30.1309H85.3619V8.31982H80.5566V30.1309Z" fill="#1C1C4C"/>
<path d="M103.685 17.3113H92.461C92.4505 16.5528 92.5915 15.7998 92.8756 15.0964C93.1598 14.3931 93.5814 13.7534 94.1157 13.215C94.6501 12.6766 95.2865 12.2502 95.9877 11.9607C96.6889 11.6713 97.4408 11.5246 98.1994 11.5293C101.444 11.5293 103.519 14.2677 103.685 17.3113ZM98.1994 7.71826C91.7023 7.71826 87.6558 13.0293 87.6558 19.2299C87.6558 25.9363 91.493 30.7066 98.3302 30.7066C103.092 30.7066 107.147 28.0904 108.194 23.2851H103.641C102.769 25.6834 101.112 26.913 98.3302 26.913C94.3186 26.913 92.461 23.8694 92.461 20.4595H108.473C109.275 13.9188 105.063 7.71826 98.1819 7.71826H98.1994Z" fill="#1C1C4C"/>
<path d="M127.755 19.186C127.755 22.9884 125.941 26.9128 121.65 26.9128C117.359 26.9128 115.615 23.1977 115.615 19.439C115.615 15.5233 117.22 11.5116 121.72 11.5116C125.426 11.5116 127.746 14.3808 127.746 19.186H127.755ZM132.403 30.1134V0H127.589V11.1453H127.502C126.028 8.74709 122.993 7.73547 120.246 7.73547C115.484 7.73547 110.801 11.2238 110.801 19.0727C110.801 25.6134 114.133 30.7151 121.005 30.7151C123.752 30.7151 126.49 29.6599 127.755 27.1744H127.842V30.1221L132.403 30.1134Z" fill="#1C1C4C"/>
<path d="M86.7925 0L85.3709 4.58721L80.5396 4.57849L81.9698 0H86.7925Z" fill="#1C1C4C"/>
</svg>
