<svg width="209" height="74" viewBox="0 0 209 74" fill="none" xmlns="http://www.w3.org/2000/svg">
<path d="M0.333008 72.6109H3.31459V38.8281H0.333008V72.6109ZM22.5207 63.148C22.5717 67.9219 18.5453 70.793 14.0262 70.793C11.2315 70.793 8.5812 68.9497 8.5812 65.9681C8.5812 61.1857 14.8756 61.2367 19.9384 60.3363C20.7369 60.1919 22.062 59.9625 22.4867 59.249H22.5802V63.131L22.5207 63.148ZM9.60904 55.6728C9.70248 51.7313 12.4462 50.0324 16.1328 50.0324C19.6326 50.0324 22.5207 51.0263 22.5207 55.0442C22.5207 57.7369 21.1531 58.0682 18.6897 58.357C12.2593 59.1131 5.58263 59.3509 5.58263 66.206C5.58263 71.1243 9.27775 73.3499 13.7714 73.3499C18.4518 73.3499 20.567 71.549 22.6651 68.3806H22.7586C22.7586 70.9289 23.2343 72.6279 26.2583 72.6279C26.913 72.637 27.5663 72.5657 28.2036 72.4155V69.9096C27.9026 70.0264 27.5835 70.0896 27.2607 70.0965C27.0207 70.1232 26.7777 70.0949 26.5503 70.0136C26.3228 69.9323 26.117 69.8003 25.9482 69.6274C25.7795 69.4546 25.6524 69.2456 25.5766 69.0163C25.5008 68.787 25.4783 68.5435 25.5108 68.3041V55.3415C25.5108 48.8092 20.8303 47.484 16.5236 47.484C10.9427 47.484 6.91627 49.9475 6.63595 55.6728H9.60904ZM49.1086 60.4042C49.1086 65.5009 46.7896 70.81 41.1153 70.81C34.7698 70.81 32.5528 65.467 32.5528 60.4042C32.5528 55.3415 34.7698 50.0324 41.1153 50.0324C46.7896 50.0324 49.1086 55.3755 49.1086 60.4382M29.5712 72.6448H32.3149V67.9729H32.4508C33.827 71.2857 37.2248 73.3159 41.1577 73.3159C48.582 73.3159 52.1327 67.3103 52.1327 60.4042C52.1327 53.4982 48.5395 47.484 41.1153 47.484C37.4711 47.484 33.9204 49.3359 32.6207 52.8356H32.5273V38.8281H29.5712V72.6109V72.6448ZM76.6224 55.3415C76.4016 50.0324 72.5196 47.484 67.6522 47.484C63.3455 47.484 58.4696 49.3783 58.4696 54.3476C58.4696 58.5099 61.4087 59.8351 65.2652 60.8714L69.0963 61.7209C71.7975 62.3835 74.4478 63.3263 74.4478 66.1635C74.4478 69.5613 70.5658 70.8015 67.7711 70.8015C63.8042 70.8015 60.8226 68.7204 60.5847 64.7025H57.6201C58.0958 70.6486 61.9778 73.3074 67.6522 73.3074C72.1883 73.3074 77.4464 71.2772 77.4464 65.9766C77.4464 61.7294 73.8957 59.7332 70.4894 59.181L66.5139 58.3231C64.4837 57.7964 61.4172 56.8535 61.4172 54.2032C61.4172 51.0348 64.5432 49.9984 67.1935 49.9984C70.5913 49.9984 73.437 51.6464 73.5729 55.3415H76.6224ZM100.186 61.2027C100.407 54.3476 97.2641 47.484 89.4067 47.484C81.5492 47.484 78.3638 53.9654 78.3638 60.4042C78.3638 67.3528 81.6257 73.3159 89.4067 73.3159C95.5567 73.3159 98.7507 70.0965 100.05 64.5665H97.0772C96.1259 68.2532 93.7644 70.81 89.4322 70.81C83.7153 70.81 81.4388 65.5604 81.3963 61.2027H100.186ZM81.4048 58.6544C81.8381 54.2797 84.5393 50.0324 89.4067 50.0324C94.2741 50.0324 97.0518 54.2372 97.1707 58.7308L81.4048 58.6544ZM102.072 72.5684H105.054V59.5972C105.054 54.5005 108.749 50.5591 114.134 50.8479V47.8663C112.143 47.7138 110.158 48.2255 108.489 49.3214C106.82 50.4172 105.561 52.0355 104.909 53.9229H104.816V48.1976H102.072V72.6109V72.5684ZM125.067 72.5684H128.235L137.367 48.1551H134.292L126.723 69.5868H126.63L118.985 48.1551H115.68L125.041 72.6109L125.067 72.5684ZM138.216 72.5684H141.181V48.1976H138.199V72.6109L138.216 72.5684ZM164.966 55.8597C164.303 50.2787 160.285 47.484 155.078 47.484C147.603 47.484 143.534 53.4302 143.534 60.4042C143.534 67.3782 147.603 73.3159 155.078 73.3159C160.514 73.3159 164.354 69.7227 165.152 63.853H162.162C161.789 67.9219 158.765 70.81 155.069 70.81C149.344 70.81 146.507 65.6029 146.507 60.4042C146.507 55.2056 149.344 50.0324 155.069 50.0324C158.951 50.0324 161.169 52.2495 161.975 55.8936L164.966 55.8597ZM187.722 61.2027C187.952 54.3476 184.834 47.484 176.977 47.484C169.119 47.484 165.934 53.9654 165.934 60.4042C165.934 67.3528 169.196 73.3159 176.977 73.3159C183.127 73.3159 186.321 70.0965 187.62 64.5665H184.647C183.696 68.2532 181.335 70.81 177.002 70.81C171.285 70.81 169.009 65.5604 168.966 61.2027H187.722ZM168.941 58.6544C169.4 54.2797 172.101 50.0324 176.968 50.0324C181.836 50.0324 184.613 54.2372 184.732 58.7308L168.941 58.6544ZM207.447 55.2565C207.243 50.0324 203.369 47.484 198.493 47.484C194.187 47.484 189.319 49.3783 189.319 54.3476C189.319 58.5099 192.25 59.8351 196.115 60.8714L199.946 61.7209C202.639 62.3835 205.289 63.3263 205.289 66.1635C205.289 69.5613 201.416 70.8015 198.621 70.8015C194.645 70.8015 191.664 68.7204 191.426 64.7025H188.453C188.92 70.6486 192.802 73.3074 198.476 73.3074C203.021 73.3074 208.271 71.2772 208.271 65.9766C208.271 61.7294 204.72 59.7332 201.314 59.181L197.347 58.2806C195.308 57.7539 192.25 56.811 192.25 54.1607C192.25 50.9923 195.367 49.956 198.018 49.956C201.416 49.956 204.261 51.6039 204.406 55.299L207.447 55.2565Z" fill="#55585A"/>
<path d="M142.613 38.8535L141.135 43.5935H138.179L139.657 38.8535H142.613Z" fill="#55585A"/>
<path d="M21.8157 8.59619H16.4217V22.7906C16.4217 26.5706 14.9011 29.4588 10.4075 29.4588C7.47691 29.4588 5.72704 27.8958 5.72704 23.589V8.59619H0.333008V24.1157C0.333008 30.4951 3.07674 33.7145 9.46463 33.7145C10.8763 33.6921 12.2584 33.3058 13.4771 32.593C14.6958 31.8803 15.71 30.8651 16.4217 29.6456H16.5151V33.0434H21.8157V8.59619Z" fill="#29829E"/>
<path d="M24.125 33.0437H29.519V18.603C29.519 15.0013 31.838 12.1641 35.4652 12.1641C38.6337 12.1641 40.1457 13.8206 40.2391 17.6516V33.0437H45.6332V16.2585C45.6332 10.771 42.2353 7.93386 36.9772 7.93386C35.4329 7.92191 33.9128 8.31776 32.5704 9.08141C31.2281 9.84506 30.111 10.9495 29.3321 12.2831L29.2387 12.1896V8.59643H24.142V33.0437H24.125Z" fill="#29829E"/>
<path d="M47.9165 33.0519H53.3105V8.59619H47.9165V33.0519Z" fill="#29829E"/>
<path d="M55.123 12.6568H59.1919V27.0975C59.2854 31.1664 60.3217 33.341 65.9876 33.341C67.1683 33.341 68.3066 33.1541 69.4873 33.0522V28.8899C68.7427 29.0517 67.9805 29.1173 67.2193 29.0852C64.8068 29.0852 64.6199 27.947 64.6199 25.6874V12.6568H69.4873V8.59643H64.586V2.46338L59.1919 5.14765V8.59643H55.123V12.6568Z" fill="#29829E"/>
<path d="M79.8328 32.9587L79.2127 34.853C78.5501 36.9341 77.9385 38.2508 75.4326 38.2508C74.5758 38.2069 73.7238 38.0962 72.8842 37.9195V42.4556C74.1205 42.6505 75.3703 42.747 76.6218 42.7444C82.2537 42.7444 83.5279 38.769 85.2778 34.3688L94.7916 8.58789H89.1598L82.9587 26.8511H82.8653L76.4774 8.58789H70.5312L79.8328 32.9587Z" fill="#29829E"/>
<path d="M49.5146 0L47.9092 5.13919L53.3287 5.14768L54.9257 0H49.5146Z" fill="#29829E"/>
</svg>
