<svg width="259" height="41" viewBox="0 0 259 41" fill="none" xmlns="http://www.w3.org/2000/svg">
<path d="M32.5847 7.29785H16.9497L12.4796 11.7818V16.9727H11.1905L7.99561 22.1775H12.4796V36.3225L17.6913 31.1108V22.1775H24.0187L27.0265 16.9727H17.6913V12.5026H29.5977L32.5847 7.29785Z" fill="#005DAA"/>
<path d="M2.48802 20.32C2.48802 16.7918 3.53426 13.3428 5.49442 10.4092C7.45458 7.47565 10.2406 5.18919 13.5003 3.83901C16.7599 2.48882 20.3467 2.13555 23.8071 2.82387C27.2675 3.51219 30.4461 5.21118 32.9409 7.70599C35.4358 10.2008 37.1348 13.3794 37.8231 16.8398C38.5114 20.3002 38.1581 23.887 36.8079 27.1467C35.4577 30.4063 33.1713 33.1923 30.2377 35.1525C27.3041 37.1127 23.8551 38.1589 20.3269 38.1589C17.984 38.1598 15.6639 37.699 13.4992 36.8029C11.3345 35.9067 9.36756 34.5927 7.71089 32.936C6.05421 31.2794 4.74024 29.3125 3.84407 27.1477C2.94791 24.983 2.48711 22.6629 2.48802 20.32ZM20.3269 40.64C24.3455 40.6386 28.2735 39.4457 31.6142 37.2121C34.9549 34.9785 37.5583 31.8044 39.0952 28.0913C40.6321 24.3782 41.0335 20.2928 40.2487 16.3515C39.4639 12.4103 37.528 8.79026 34.686 5.94915C31.8439 3.10804 28.2232 1.17344 24.2817 0.389945C20.3402 -0.393545 16.2549 0.00926369 12.5423 1.54744C8.82968 3.08562 5.65654 5.69008 3.42406 9.03154C1.19157 12.373 2.33733e-07 16.3014 0 20.32C-1.55238e-07 22.989 0.525822 25.6319 1.54743 28.0977C2.56904 30.5635 4.06642 32.8039 5.95404 34.6909C7.84166 36.5778 10.0825 38.0745 12.5487 39.0952C15.0148 40.116 17.6579 40.6409 20.3269 40.64Z" fill="#005DAA"/>
<path d="M83.5532 34.4928H87.8224V23.0715C87.8224 20.2231 89.6589 17.9776 92.5073 17.9776C95.0161 17.9776 96.2151 19.2875 96.2844 22.323V34.4928H100.554V21.1725C100.554 16.8272 97.8992 14.5817 93.7063 14.5817C92.5521 14.5644 91.4126 14.8425 90.3962 15.3896C89.3797 15.9366 88.5199 16.7345 87.8986 17.7073H87.8224V7.6582L83.5532 9.84129V34.4928Z" fill="#005DAA"/>
<path d="M46.4087 18.3173H49.5898V34.4929H53.8589V18.3173H56.5202L57.4904 15.1363H53.8589V13.1472C53.8589 11.5394 54.7945 11.1305 55.938 11.1305C56.6058 11.1113 57.2731 11.1859 57.9201 11.3523V8.00486C56.9371 7.79192 55.9313 7.70344 54.9262 7.74151C52.154 7.74151 49.569 8.56622 49.569 13.5076V15.1224H46.4087V18.3035V18.3173Z" fill="#005DAA"/>
<path d="M59.3481 34.4929H63.6103V15.1362H59.3481V34.4929Z" fill="#005DAA"/>
<path d="M64.9478 28.2762C65.024 32.8433 68.6555 35.0195 73.5207 35.0195C77.5334 35.0195 82.1768 33.3284 82.1768 28.7266C82.1768 24.908 79.0304 23.7853 75.9394 23.0714C72.8484 22.3576 69.6535 22.0596 69.6535 19.9666C69.6535 18.2825 71.9336 17.9776 73.1672 17.9776C75.0454 17.9776 76.7295 18.5389 77.1037 20.5626H81.56C81.0333 16.2588 77.4017 14.6094 73.4722 14.6094C69.9515 14.6094 65.3844 15.9192 65.3844 20.1537C65.3844 24.0833 68.4546 25.206 71.6218 25.8782C74.789 26.5505 77.8591 26.8554 77.9562 29.1009C78.0532 31.3463 75.2602 31.6444 73.6454 31.6444C71.3653 31.6444 69.4872 30.7503 69.2654 28.2762H64.9478Z" fill="#005DAA"/>
<path d="M116.11 23.113H106.172C106.283 20.223 108.307 17.9776 111.266 17.9776C114.225 17.9776 115.986 20.4101 116.117 23.113H116.11ZM111.259 14.6094C105.493 14.6094 101.896 19.329 101.896 24.8317C101.896 30.785 105.306 35.0195 111.37 35.0195C115.604 35.0195 119.194 32.6562 120.13 28.4286H116.089C115.341 30.5632 113.837 31.6444 111.37 31.6444C107.815 31.6444 106.165 28.9484 106.165 25.9198H120.379C121.072 20.1121 117.344 14.6094 111.245 14.6094H111.259Z" fill="#005DAA"/>
<path d="M121.761 34.4925H126.03V25.282C126.03 21.0129 128.352 18.6565 131.269 18.6565C131.885 18.6807 132.498 18.7432 133.106 18.8436V14.6854C132.573 14.6077 132.036 14.5706 131.498 14.5745C128.871 14.5745 126.328 16.7853 125.843 18.8436H125.767V15.1012H121.761V34.4925Z" fill="#005DAA"/>
<path d="M64.9479 7.69287L63.6658 11.7957L59.3481 11.7887L60.6233 7.69287H64.9479Z" fill="#005DAA"/>
<path d="M152.752 20.6666C152.6 16.4321 149.502 14.3945 145.614 14.3945C142.149 14.3945 138.282 15.9054 138.282 19.8696C138.282 23.1962 140.624 24.2496 143.722 25.0812L146.785 25.7743C148.934 26.3079 151.048 27.0633 151.048 29.3296C151.048 32.0463 147.957 33.0304 145.725 33.0304C142.551 33.0304 140.181 31.3671 139.987 28.1791H137.603C137.984 32.9334 141.068 35.0541 145.614 35.0541C149.239 35.0541 153.432 33.4255 153.432 29.1979C153.432 25.7951 150.597 24.2149 147.887 23.7991L144.713 23.1061C143.084 22.6902 140.673 21.9348 140.673 19.821C140.673 17.2914 143.161 16.4598 145.275 16.4598C147.998 16.4598 150.264 17.7835 150.375 20.7289L152.752 20.6666Z" fill="#58595B"/>
<path d="M171.311 21.0824C170.784 16.6261 167.575 14.3945 163.417 14.3945C157.45 14.3945 154.207 19.1141 154.207 24.707C154.207 30.2998 157.45 35.0333 163.396 35.0333C167.742 35.0333 170.805 32.1572 171.442 27.4792H169.065C168.76 30.7226 166.342 33.0235 163.396 33.0235C158.829 33.0235 156.563 28.8652 156.563 24.707C156.563 20.5487 158.829 16.3905 163.396 16.3905C166.494 16.3905 168.248 18.1647 168.941 21.0755L171.311 21.0824Z" fill="#58595B"/>
<path d="M172.779 34.4512H175.156V14.9629H172.779V34.4512Z" fill="#58595B"/>
<path d="M191.462 23.3486H178.848C179.223 19.7933 181.378 16.4182 185.266 16.4182C189.154 16.4182 191.351 19.7795 191.462 23.3486ZM185.266 14.3945C179.077 14.3945 176.471 19.5716 176.471 24.707C176.471 30.2513 179.077 35.0195 185.266 35.0195C190.18 35.0195 192.744 32.4483 193.77 28.0267H191.413C190.658 30.979 188.773 33.0166 185.294 33.0166C180.726 33.0166 178.911 28.8237 178.876 25.3446H193.873C194.061 19.8696 191.566 14.3945 185.294 14.3945H185.266Z" fill="#58595B"/>
<path d="M195.162 34.4512H197.539V23.0784C197.615 19.2666 199.881 16.3974 203.658 16.3974C207.436 16.3974 208.607 18.927 208.607 22.2883V34.4512H210.984V21.914C210.984 17.2637 209.321 14.3945 203.846 14.3945C201.073 14.3945 198.481 15.9816 197.608 18.3241H197.532V14.9351H195.155V34.4512H195.162Z" fill="#58595B"/>
<path d="M214.773 11.2343V14.9351H211.377V16.938H214.773V30.293C214.773 33.6196 215.833 34.6799 219.007 34.6799C219.7 34.6799 220.393 34.6037 221.121 34.6037V32.5592C220.445 32.6364 219.764 32.6758 219.084 32.677C217.379 32.5592 217.15 31.6582 217.15 30.1058V16.938H221.121V14.9351H217.15V9.98682L214.773 11.2343Z" fill="#58595B"/>
<path d="M222.512 34.4512H224.896V14.9629H222.512V34.4512Z" fill="#58595B"/>
<path d="M237.282 34.4512H239.666V14.9629H237.282V34.4512Z" fill="#58595B"/>
<path d="M229.617 34.451H231.994V16.9655H235.847V14.9349H231.994V13.2647C232.035 11.144 231.959 9.4876 234.6 9.4876C235.184 9.49559 235.766 9.55823 236.339 9.67472V7.63718C235.677 7.53071 235.007 7.47971 234.336 7.48471C230.525 7.48471 229.575 9.82719 229.617 13.1884V14.9349H226.29V16.9378H229.617V34.451Z" fill="#58595B"/>
<path d="M258.356 21.0824C257.822 16.6261 254.613 14.3945 250.462 14.3945C244.495 14.3945 241.245 19.1141 241.245 24.707C241.245 30.2998 244.495 35.0333 250.462 35.0333C254.801 35.0333 257.864 32.1572 258.501 27.4792H256.124C255.826 30.7226 253.408 33.0235 250.462 33.0235C245.888 33.0235 243.622 28.8652 243.622 24.707C243.622 20.5487 245.888 16.3905 250.462 16.3905C253.56 16.3905 255.313 18.1647 256.006 21.0755L258.356 21.0824Z" fill="#58595B"/>
<path d="M240.834 7.48486L239.656 11.2619H237.3L238.478 7.48486H240.834Z" fill="#58595B"/>
<path d="M226.054 7.48486L224.869 11.2619H222.512L223.69 7.48486H226.054Z" fill="#58595B"/>
<path d="M176.312 7.48486L175.127 11.2619H172.771L173.949 7.48486H176.312Z" fill="#58595B"/>
</svg>
