<svg width="161" height="79" viewBox="0 0 161 79" fill="none" xmlns="http://www.w3.org/2000/svg">
<g clip-path="url(#clip0_5432_1180)">
<path d="M19.1211 60.939C18.9311 55.6178 15.0508 53.0571 10.1846 53.0571C5.87926 53.0571 1.00403 54.9549 1.00403 59.9401C1.00403 64.1171 3.93459 65.452 7.81488 66.4962L11.6499 67.3498C14.3634 68.0126 16.9864 68.9661 16.9864 71.8083C16.9864 75.2316 13.1152 76.4665 10.3203 76.4665C6.34959 76.4665 3.37381 74.378 3.13864 70.3372H0.153809C0.624146 76.3213 4.52251 79 10.1846 79C14.7071 79 19.9713 76.9569 19.9713 71.6357C19.9713 67.3679 16.4257 65.3702 13.0157 64.8526L9.04499 63.9264C7.00988 63.4089 3.98886 62.4554 3.98886 59.7948C3.98886 56.6167 7.10937 55.5724 9.75954 55.5724C13.1604 55.5724 16.0005 57.2341 16.1362 60.939H19.1211Z" fill="#55585A"/>
<path d="M43.063 61.4566C42.4027 55.8539 38.3867 53.0571 33.1859 53.0571C25.7057 53.0571 21.6445 58.9957 21.6445 66.0149C21.6445 73.0341 25.7057 79 33.1859 79C38.6128 79 42.4479 75.3678 43.2529 69.5018H40.2771C39.8972 73.588 36.8672 76.4847 33.1859 76.4847C27.4604 76.4847 24.6203 71.2544 24.6203 66.0331C24.6203 60.8118 27.4604 55.5906 33.1859 55.5906C37.0571 55.5906 39.2822 57.8244 40.0872 61.4747L43.063 61.4566Z" fill="#55585A"/>
<path d="M46.3735 78.2647H49.3493V53.7656H46.3735V78.2647Z" fill="#55585A"/>
<path d="M71.2287 64.3078H55.4362C55.9066 59.8493 58.602 55.5724 63.4681 55.5724C68.3343 55.5724 71.084 59.7948 71.2287 64.3078ZM63.4681 53.0571C55.7166 53.0571 52.4604 59.5587 52.4604 66.0149C52.4604 72.9978 55.7166 79 63.4681 79C69.6187 79 72.8387 75.7674 74.114 70.2101H71.1292C70.2247 73.9149 67.8188 76.4847 63.4681 76.4847C57.7517 76.4847 55.4815 71.209 55.4362 66.8413H74.1683C74.4035 59.9583 71.283 53.0753 63.432 53.0753L63.4681 53.0571Z" fill="#55585A"/>
<path d="M76.5835 78.2645H79.5955V63.9809C79.6859 59.1774 82.526 55.5724 87.2565 55.5724C91.987 55.5724 93.4433 58.7506 93.4433 62.9821V78.2645H96.4281V62.5008C96.4281 56.6621 94.3478 53.0571 87.4917 53.0571C84.0365 53.0571 80.7713 55.0548 79.6859 57.9969H79.5955V53.7654H76.6106V78.2826L76.5835 78.2645Z" fill="#55585A"/>
<path d="M101.15 49.0799V53.7654H96.8896V56.2989H101.15V73.0432C101.105 77.2203 102.47 78.5551 106.441 78.5551C107.346 78.5551 108.196 78.4552 109.091 78.4552V75.8945C108.244 75.9882 107.393 76.0367 106.541 76.0398C104.415 75.8945 104.126 74.7504 104.126 72.8071V56.2989H109.091V53.7654H104.126V47.5181L101.15 49.0799Z" fill="#55585A"/>
<path d="M112.302 78.2647H115.278V53.7656H112.302V78.2647Z" fill="#55585A"/>
<path d="M133.702 78.2647H136.678V53.7656H133.702V78.2647Z" fill="#55585A"/>
<path d="M122.64 78.2643H125.625V56.2987H130.446V53.7653H125.625V51.6314C125.67 48.9708 125.571 46.8823 128.881 46.8823C129.613 46.8983 130.343 46.9773 131.061 47.1184V44.5577C130.233 44.4256 129.395 44.3618 128.556 44.367C123.78 44.367 122.595 47.3091 122.64 51.5405V53.7653H118.489V56.2987H122.649V78.2734L122.64 78.2643Z" fill="#55585A"/>
<path d="M160.81 61.4566C160.15 55.8539 156.125 53.0571 150.924 53.0571C143.453 53.0571 139.392 58.9957 139.392 66.0149C139.392 73.0341 143.453 79 150.924 79C156.351 79 160.195 75.3678 161 69.5018H158.024C157.644 73.588 154.614 76.4847 150.924 76.4847C145.207 76.4847 142.367 71.2544 142.367 66.0331C142.367 60.8118 145.207 55.5906 150.924 55.5906C154.804 55.5906 157.029 57.8244 157.834 61.4747L160.81 61.4566Z" fill="#55585A"/>
<path d="M138.143 44.3672L136.66 49.1253H133.711L135.186 44.3672H138.143Z" fill="#55585A"/>
<path d="M116.725 44.3672L115.251 49.1253H112.293L113.767 44.3672H116.725Z" fill="#55585A"/>
<path d="M50.7965 44.3672L49.3222 49.1253H46.3735L47.8479 44.3672H50.7965Z" fill="#55585A"/>
<path d="M140.902 24.8807C140.902 29.1576 138.767 33.5707 133.946 33.5707C129.125 33.5707 126.991 29.1576 126.991 24.8807C126.991 20.6038 129.125 16.2452 133.946 16.2452C138.767 16.2452 140.902 20.6583 140.902 24.8807ZM146.329 24.8807C146.329 17.3802 141.806 11.9683 133.983 11.9683C126.159 11.9683 121.636 17.4165 121.636 24.8807C121.636 32.3448 126.159 37.8476 133.983 37.8476C141.806 37.8476 146.329 32.3993 146.329 24.8807Z" fill="#E51E25"/>
<path d="M113.704 37.2299H119.131V20.2313C119.131 14.2473 116.101 11.9681 110.991 11.9681C109.472 11.9304 107.968 12.2867 106.626 13.0024C105.284 13.7182 104.149 14.7694 103.33 16.0543C102.244 13.2484 99.4494 11.9681 96.4736 11.9681C94.9666 11.8826 93.4656 12.2195 92.1382 12.9411C90.8109 13.6627 89.7096 14.7406 88.9573 16.0543H88.8125V12.631H83.7021V37.2299H89.1291V22.6013C89.1291 18.5242 91.6888 16.245 94.4747 16.245C97.7399 16.245 98.7801 18.0611 98.7801 21.4208V37.2299H104.207V22.792C104.207 18.6604 105.763 16.245 109.408 16.245C113.614 16.245 113.858 18.9691 113.858 22.8465V37.2299H113.704Z" fill="#E51E25"/>
<path d="M78.3383 17.0986C79.1141 17.1323 79.8872 17.2111 80.6538 17.3347V12.1135C79.9803 12.0114 79.2999 11.9628 78.6187 11.9682C75.3083 11.9682 72.0973 14.774 71.4823 17.4164H71.3828V12.631H66.3267V37.23H71.7536V25.4981C71.7536 20.0498 74.6842 17.0986 78.3745 17.0986H78.3383Z" fill="#E51E25"/>
<path d="M58.5477 22.7468H45.9753C46.1109 19.1146 48.6887 16.2452 52.4062 16.2452C56.1237 16.2452 58.3668 19.3325 58.5477 22.7468ZM52.4062 11.9683C45.1703 11.9683 40.5845 17.9523 40.5845 24.9352C40.5845 32.481 44.8808 37.8476 52.5419 37.8476C57.8874 37.8476 62.428 34.851 63.6129 29.4936H58.5025C57.598 32.2177 55.6714 33.5707 52.5419 33.5707C48.0194 33.5707 45.9753 30.1564 45.9753 26.3063H63.9476C64.8521 18.9511 60.1125 11.9683 52.4062 11.9683Z" fill="#E51E25"/>
<mask id="mask0_5432_1180" style="mask-type:luminance" maskUnits="userSpaceOnUse" x="0" y="0" width="161" height="79">
<path d="M161 0.181641H0V78.9819H161V0.181641Z" fill="white"/>
</mask>
<g mask="url(#mask0_5432_1180)">
<path d="M32.8058 37.2299H38.2327V20.3221C38.2327 14.8193 34.8771 11.9681 29.5767 11.9681C28.1266 11.94 26.6933 12.2829 25.4116 12.9644C24.1299 13.6459 23.042 14.6436 22.2503 15.8636H22.1599V5.66624V0.599342V0.181641L16.7329 2.96026V4.64015V7.36428V8.27233V37.2299H22.1599V22.7012C22.1599 19.069 24.4754 16.245 28.0662 16.245C31.232 16.245 32.7515 17.9067 32.842 21.7477V37.2299H32.8058Z" fill="#E51E25"/>
<path d="M10.8539 37.4208C12.0388 37.4208 13.1785 37.2301 14.3543 37.1302V32.9532C13.6085 33.1116 12.8458 33.1757 12.084 33.1439C9.67809 33.1439 9.48815 32.0089 9.48815 29.7751V16.672H14.3543V12.6312H9.46101V6.47461L4.03404 9.27139V12.6312H0V16.672H4.07023V31.2007C4.16068 35.2778 5.20084 37.4662 10.8268 37.4662L10.8539 37.4208Z" fill="#E51E25"/>
</g>
</g>
<defs>
<clipPath id="clip0_5432_1180">
<rect width="161" height="79" fill="white"/>
</clipPath>
</defs>
</svg>
