<svg width="169" height="47" viewBox="0 0 169 47" fill="none" xmlns="http://www.w3.org/2000/svg">
<mask id="mask0_5432_1379" style="mask-type:luminance" maskUnits="userSpaceOnUse" x="0" y="0" width="169" height="47">
<path d="M168.849 0H0.666016V46.69H168.849V0Z" fill="white"/>
</mask>
<g mask="url(#mask0_5432_1379)">
<path d="M19.7723 25.1422C19.7749 24.0405 19.6284 22.9435 19.3369 21.881C19.0746 20.8751 18.6352 19.924 18.0392 19.0723C17.4779 18.2531 16.7398 17.5704 15.8793 17.0746C14.9724 16.5679 13.947 16.3115 12.9084 16.3318C11.905 16.2744 10.9031 16.4684 9.99369 16.8963C9.08427 17.3241 8.29609 17.9723 7.70068 18.782C6.44759 20.6682 5.83129 22.9061 5.94201 25.1678C5.93271 26.3447 6.08788 27.5171 6.40302 28.651C6.67078 29.6518 7.13513 30.5892 7.76897 31.4086C8.36262 32.1628 9.10696 32.785 9.9545 33.2355C10.8698 33.6959 11.8841 33.9246 12.9084 33.9014C14.0142 33.9367 15.1089 33.6711 16.0757 33.1331C16.9246 32.6348 17.6533 31.9556 18.21 31.1439C18.7926 30.2922 19.2124 29.3399 19.4479 28.3352C19.6874 27.2878 19.8077 26.2167 19.8064 25.1422H19.7723ZM0.666016 12.7121H5.8481V16.0672H5.94201C6.64943 14.6987 7.79872 13.6096 9.20323 12.9767C10.6068 12.3465 12.1297 12.0262 13.6682 12.0376C15.4314 11.9951 17.1817 12.348 18.7905 13.0706C20.1994 13.7238 21.4383 14.6938 22.4103 15.905C23.3992 17.1496 24.1332 18.5769 24.5702 20.1053C25.0599 21.7684 25.3044 23.494 25.2959 25.2276C25.2727 26.872 25.0286 28.5059 24.5702 30.0853C24.1707 31.5794 23.5024 32.9882 22.5981 34.2429C21.6769 35.513 20.4579 36.5376 19.0483 37.2268C17.6387 37.916 16.0815 38.2486 14.5134 38.1956C13.7089 38.197 12.906 38.1256 12.1144 37.9822C11.3223 37.8401 10.5489 37.6081 9.80937 37.2907C9.07951 36.9698 8.39379 36.5566 7.76897 36.0613C7.15486 35.5852 6.62651 35.0078 6.20667 34.3539H6.11275V46.7328H0.666016V12.7121Z" fill="#58595B"/>
</g>
<path d="M43.8473 25.091C42.9249 25.6662 41.8755 26.0063 40.791 26.0813C39.5702 26.1923 38.3579 26.363 37.1456 26.585C36.5673 26.6762 35.9966 26.8103 35.4382 26.9863C34.9219 27.1503 34.4349 27.3953 33.9954 27.7119C33.5718 28.0204 33.2339 28.4317 33.0136 28.9071C32.7604 29.4819 32.6408 30.1065 32.6636 30.7341C32.6436 31.2942 32.8322 31.8418 33.1929 32.2708C33.5385 32.6852 33.9695 33.0201 34.4564 33.2526C34.9755 33.4991 35.5276 33.6687 36.0955 33.7563C36.6254 33.8505 37.1624 33.8991 37.7005 33.9014C38.362 33.8964 39.0207 33.8162 39.6641 33.6624C40.3741 33.4946 41.0499 33.2058 41.6618 32.8086C42.2783 32.4322 42.8103 31.9323 43.2241 31.3402C43.653 30.6938 43.8708 29.9302 43.8473 29.1547V25.091ZM49.3282 32.0061C49.2929 32.5008 49.3809 32.9966 49.5843 33.4489C49.7045 33.6038 49.863 33.7246 50.0442 33.7994C50.2253 33.8743 50.4229 33.9006 50.6173 33.8758H51.1979C51.4567 33.8743 51.7146 33.8428 51.9662 33.7819V37.5639C51.7698 37.6322 51.5223 37.7005 51.2235 37.7858L50.2844 37.9993C49.9685 38.059 49.6441 38.1102 49.3282 38.1444C49.0123 38.1785 48.7306 38.1444 48.4745 38.1444C47.5198 38.2028 46.5671 38.0022 45.717 37.5639C45.3256 37.2933 44.9951 36.9439 44.7466 36.5382C44.4982 36.1324 44.3373 35.6792 44.2742 35.2076C43.1466 36.2897 41.7723 37.0809 40.2702 37.5126C38.7854 37.9748 37.2408 38.2164 35.6857 38.2298C34.5966 38.237 33.5122 38.0845 32.4672 37.7773C31.4882 37.4955 30.5683 37.0385 29.7524 36.4284C28.9634 35.8212 28.3238 35.0415 27.8827 34.149C27.403 33.1543 27.166 32.0601 27.1912 30.9561C27.1378 29.6558 27.4325 28.365 28.0449 27.2168C28.5735 26.286 29.3356 25.5092 30.2561 24.9629C31.2071 24.4004 32.2461 24.0021 33.3295 23.7848C34.4649 23.5458 35.6089 23.3579 36.7444 23.2299C37.7347 23.0421 38.6738 22.9055 39.5702 22.8201C40.3745 22.7576 41.1716 22.6233 41.9521 22.4188C42.5576 22.2729 43.1177 21.9796 43.5827 21.5651C43.807 21.3166 43.9781 21.0248 44.0852 20.7077C44.1924 20.3905 44.2335 20.0547 44.2059 19.7211C44.2257 19.1126 44.0491 18.5139 43.7022 18.0136C43.3738 17.576 42.9468 17.222 42.4558 16.9806C41.9306 16.7268 41.3688 16.5569 40.791 16.477C40.2249 16.402 39.6546 16.3621 39.0836 16.3574C37.7533 16.3056 36.4366 16.6407 35.293 17.3221C34.7927 17.6459 34.3768 18.0844 34.0799 18.601C33.7829 19.1177 33.6135 19.6978 33.5856 20.2931H28.1218C28.1587 18.8913 28.5524 17.522 29.2658 16.3147C29.911 15.2753 30.7875 14.3988 31.8269 13.7536C32.9117 13.0958 34.106 12.6389 35.3528 12.4047C36.6834 12.1472 38.0356 12.0186 39.3909 12.0205C40.5992 12.0198 41.8042 12.1486 42.9851 12.4047C44.1094 12.6415 45.1859 13.0657 46.1694 13.6597C47.1045 14.2154 47.8944 14.9849 48.4745 15.905C49.0735 16.9095 49.3699 18.0656 49.3282 19.2345V32.0403V32.0061Z" fill="#58595B"/>
<path d="M111.743 22.931C111.682 22.078 111.498 21.2383 111.197 20.4381C110.909 19.6706 110.484 18.9619 109.942 18.3465C109.406 17.7467 108.756 17.2592 108.03 16.9122C107.244 16.5365 106.382 16.3467 105.511 16.3573C104.612 16.3462 103.721 16.5175 102.89 16.861C102.131 17.1823 101.445 17.6559 100.875 18.2526C100.304 18.8635 99.8475 19.5719 99.5266 20.3442C99.1938 21.1587 99.0088 22.026 98.9802 22.9054L111.743 22.931ZM98.9375 26.5337C98.9347 27.4766 99.0728 28.4147 99.3473 29.3168C99.5937 30.1755 100.009 30.9765 100.568 31.6731C101.14 32.3653 101.861 32.9198 102.677 33.2951C103.609 33.7169 104.625 33.9212 105.648 33.8927C107.013 33.9611 108.366 33.5999 109.515 32.8597C110.554 32.0885 111.32 31.0058 111.701 29.7693H116.883C116.372 32.2866 114.933 34.5201 112.853 36.027C111.842 36.7596 110.713 37.3139 109.515 37.6662C108.259 38.0356 106.957 38.2196 105.648 38.2126C103.874 38.2471 102.111 37.9218 100.466 37.2564C99.0118 36.6507 97.709 35.7326 96.6495 34.5672C95.5836 33.3746 94.7833 31.969 94.3018 30.4437C93.7565 28.7359 93.4884 26.9518 93.5078 25.1592C93.5057 23.4524 93.7944 21.7577 94.3615 20.1478C94.8946 18.6166 95.7081 17.198 96.7605 15.9646C97.8097 14.7541 99.101 13.777 100.551 13.0961C102.114 12.3684 103.822 12.0064 105.545 12.0375C107.37 12.0094 109.173 12.4317 110.796 13.2669C112.308 14.0462 113.629 15.1513 114.663 16.5025C115.707 17.8838 116.465 19.4599 116.891 21.1382C117.358 22.8967 117.479 24.7289 117.25 26.5337H98.9375Z" fill="#58595B"/>
<path d="M132.028 33.8759C133.133 33.9028 134.226 33.6378 135.196 33.1075C136.075 32.6119 136.832 31.923 137.407 31.0928C137.992 30.238 138.422 29.2874 138.679 28.284C138.953 27.2419 139.091 26.1687 139.088 25.0911C139.086 24.0223 138.949 22.958 138.679 21.9238C138.425 20.9192 137.995 19.968 137.407 19.1151C136.823 18.2987 136.069 17.6198 135.196 17.1259C134.216 16.6212 133.13 16.3579 132.028 16.3579C130.926 16.3579 129.84 16.6212 128.861 17.1259C127.988 17.6198 127.233 18.2987 126.65 19.1151C126.062 19.968 125.631 20.9192 125.378 21.9238C125.115 22.9592 124.98 24.0229 124.976 25.0911C124.975 26.1681 125.11 27.2408 125.378 28.284C125.634 29.2874 126.065 30.238 126.65 31.0928C127.225 31.923 127.981 32.6119 128.861 33.1075C129.831 33.6378 130.923 33.9028 132.028 33.8759ZM132.028 38.1957C130.213 38.2284 128.41 37.8944 126.727 37.2139C125.236 36.6009 123.894 35.6751 122.791 34.4991C121.696 33.31 120.862 31.9056 120.341 30.3756C119.759 28.6753 119.47 26.8883 119.487 25.0911C119.472 23.3136 119.761 21.5466 120.341 19.8663C120.86 18.3328 121.694 16.9252 122.791 15.7343C123.894 14.5583 125.236 13.6325 126.727 13.0195C130.14 11.7103 133.917 11.7103 137.33 13.0195C138.821 13.6325 140.163 14.5583 141.265 15.7343C142.362 16.9252 143.197 18.3328 143.716 19.8663C144.296 21.5466 144.585 23.3136 144.569 25.0911C144.587 26.8883 144.298 28.6753 143.716 30.3756C143.195 31.9056 142.36 33.31 141.265 34.4991C140.163 35.6751 138.821 36.6009 137.33 37.2139C135.647 37.8944 133.843 38.2284 132.028 38.1957Z" fill="#58595B"/>
<path d="M147.053 12.7118H152.244V16.3572L152.338 16.4511C153.133 15.1135 154.255 14.0001 155.599 13.2155C156.954 12.4281 158.497 12.0211 160.064 12.0373C162.4 11.9073 164.698 12.6634 166.501 14.1546C168.066 15.5603 168.849 17.6719 168.849 20.4892V37.5636H163.376V21.9234C163.308 19.9769 162.898 18.5598 162.13 17.6548C161.662 17.1846 161.098 16.8225 160.475 16.5939C159.853 16.3653 159.188 16.2758 158.527 16.3315C157.67 16.3186 156.82 16.4904 156.034 16.8352C155.318 17.1588 154.68 17.6335 154.165 18.2268C153.639 18.8446 153.231 19.5536 152.961 20.3184C152.666 21.1398 152.519 22.0069 152.526 22.8796V37.5636H147.053V12.7118Z" fill="#58595B"/>
<path d="M85.5523 37.5637H91.0503V20.4893C91.0503 14.8974 87.6354 12.0033 82.2228 12.0033C80.7436 11.9755 79.2816 12.3236 77.9736 13.0149C76.6656 13.7062 75.5545 14.7182 74.7442 15.956H74.6503V5.5748V0.452473V0L69.1353 2.82582V4.53326V7.24809V8.22133V37.5637H74.6332V22.8797C74.6332 19.2173 76.998 16.3231 80.6605 16.3231C83.8961 16.3231 85.4328 18.0306 85.5352 21.915V37.5637H85.5523Z" fill="#58595B"/>
<path d="M62.7239 37.8285C63.9362 37.8285 65.0887 37.6407 66.2925 37.5383V33.2953C65.5327 33.4583 64.7553 33.5243 63.9789 33.4916C61.5202 33.4916 61.3323 32.3306 61.3323 30.0767V16.7502H66.2925V12.6523H61.3323V6.39453L55.8258 9.23742V12.6523H51.6768V16.7502H55.8258V31.4683C55.9283 35.6174 56.9869 37.8285 62.7239 37.8285Z" fill="#58595B"/>
</svg>
