<svg width="128" height="48" viewBox="0 0 128 48" fill="none" xmlns="http://www.w3.org/2000/svg">
<path d="M20.1813 23.1843C20.1813 27.7782 18.2187 32.5868 12.9707 32.5868C8.04267 32.5868 5.90933 28.1002 5.90933 23.6565C5.90933 19.1699 7.72267 14.254 12.9707 14.254C18.112 14.2755 20.1813 18.5474 20.1813 23.1843ZM26.0907 35.8712V10.3041H20.1813V14.0179H20.0747C18.56 10.9911 15.5093 9.57424 12.1387 9.57424C4.52267 9.57424 0 15.8426 0 23.0984C0 30.8265 3.52 37.288 12.032 37.288C15.36 37.288 18.4107 35.5063 20.0747 32.5438H20.1813V36.6655C20.1813 41.1091 18.048 43.5563 13.2907 43.5563C10.2827 43.5563 7.59467 42.9767 6.848 39.585H0.938665C1.45067 45.8962 7.53067 48 12.928 48C21.376 47.9785 26.0907 43.9642 26.0907 35.8712ZM31.4667 37.288H37.376V10.3041H31.4667V37.288ZM63.936 23.8283C63.936 28.5295 61.9093 33.3381 56.512 33.3381C51.7333 33.3381 48.9813 29.2594 48.9813 23.8283C48.9813 18.0966 51.52 14.2755 56.512 14.2755C61.3973 14.2755 63.936 18.9123 63.936 23.8283ZM69.8453 23.9141C69.8453 16.0358 65.7493 9.55277 57.3013 9.55277C54.2933 9.55277 50.9227 11.1628 49.3013 13.7818H49.1947V0H43.2853V37.2665H48.896V33.5742H49.0027C50.7733 37.1163 54.656 38.0179 58.2827 38.0179C66.2187 38.0179 69.8453 31.1699 69.8453 23.9141ZM97.92 19.3202C97.344 12.6869 92.0533 9.55277 85.824 9.55277C77.0133 9.55277 72.5973 15.9284 72.5973 24.0644C72.5973 32.0072 77.2053 37.9964 85.6107 37.9964C92.5013 37.9964 96.8107 34.1324 97.8987 27.1342H91.9893C91.4133 30.9982 89.024 33.2952 85.6107 33.2952C80.4693 33.2952 78.5067 28.551 78.5067 24.0644C78.5067 15.864 82.816 14.254 85.8667 14.254C89.1307 14.254 91.52 16.0358 91.9893 19.3202H97.92ZM122.091 23.7639C122.091 28.4651 119.765 33.3166 114.475 33.3166C109.184 33.3166 106.859 28.4651 106.859 23.7639C106.859 19.127 109.184 14.254 114.475 14.254C119.744 14.2755 122.091 19.127 122.091 23.7639ZM128 23.7639C128 15.5206 123.072 9.57424 114.453 9.57424C105.835 9.57424 100.907 15.5206 100.907 23.7639C100.907 32.0715 105.835 38.0179 114.453 38.0179C123.072 38.0179 128 32.0715 128 23.7639ZM33.2587 0.0214649L31.5093 5.68873H37.44L39.2107 0.0214649H33.2587Z" fill="#00558A"/>
</svg>
