<svg width="221" height="48" viewBox="0 0 221 48" fill="none" xmlns="http://www.w3.org/2000/svg">
<path d="M1.01758 37.293H6.96891V10.2988H1.01758V37.293Z" fill="#E51E25"/>
<path d="M10.5947 37.2931H16.5461V21.3672C16.5461 17.3997 19.1046 14.2664 23.0351 14.2664C26.5391 14.2664 28.2077 16.1204 28.3097 20.329V37.2931H34.2703V18.7531C34.2703 12.6905 30.5623 9.55728 24.7129 9.55728C23.013 9.54789 21.3407 9.98685 19.8646 10.8299C18.3885 11.6729 17.1607 12.8903 16.305 14.3591L16.2031 14.2572V10.2989H10.5947V37.2931Z" fill="#E51E25"/>
<path d="M45.1343 37.293H51.818L61.4773 10.2988H55.3127L48.7403 31.0265H48.6291L41.7878 10.2988H35.3174L45.1343 37.293Z" fill="#E51E25"/>
<path d="M63.9517 37.293H69.903V10.2988H63.9517V37.293Z" fill="#E51E25"/>
<path d="M72.8892 14.739H77.3758V30.6649C77.4778 35.1516 78.6273 37.5618 84.8474 37.5618C86.1452 37.5618 87.406 37.3485 88.7038 37.2466V32.6116C87.8818 32.7882 87.0408 32.8599 86.2009 32.8248C83.5404 32.8248 83.3272 31.5641 83.3272 29.1168V14.739H88.7316V10.2987H83.355V3.39258L77.3758 6.48875V10.2894H72.8892V14.739Z" fill="#E51E25"/>
<path d="M92.5039 37.2929H98.4645V24.454C98.4645 18.4934 101.7 15.184 105.769 15.184C106.627 15.2154 107.481 15.3021 108.328 15.4436V9.69619C107.586 9.58223 106.835 9.52952 106.084 9.5386C102.432 9.5386 98.8817 12.6255 98.1957 15.4899H98.0937V10.2987H92.5317V37.2929H92.5039Z" fill="#E51E25"/>
<mask id="mask0_5432_1629" style="mask-type:luminance" maskUnits="userSpaceOnUse" x="0" y="0" width="221" height="48">
<path d="M220.541 0H0.666016V48H220.541V0Z" fill="white"/>
</mask>
<g mask="url(#mask0_5432_1629)">
<path d="M130.01 23.768C130.01 28.4679 127.665 33.3254 122.335 33.3254C117.005 33.3254 114.687 28.4679 114.687 23.768C114.687 19.0681 117.042 14.2663 122.363 14.2663C127.684 14.2663 130.038 19.1238 130.038 23.768H130.01ZM135.971 23.768C135.971 15.5177 131.002 9.56641 122.335 9.56641C113.667 9.56641 108.708 15.5177 108.708 23.768C108.708 32.0183 113.667 38.0067 122.335 38.0067C131.002 38.0067 136.008 32.0739 136.008 23.768H135.971Z" fill="#E51E25"/>
<path d="M158.979 23.1747C158.979 27.8097 156.995 32.5745 151.721 32.5745C146.761 32.5745 144.62 28.0878 144.62 23.6475C144.62 19.2072 146.474 14.2477 151.721 14.2477C156.967 14.2477 158.979 18.5398 158.979 23.1747ZM164.93 35.8654V10.2987H158.979V14.0067H158.877C157.357 10.9754 154.242 9.56641 150.886 9.56641C143.211 9.56641 138.668 15.8329 138.668 23.0913C138.668 30.8225 142.219 37.2929 150.775 37.2929C152.426 37.2949 154.047 36.8559 155.471 36.0215C156.896 35.1871 158.071 33.9875 158.877 32.5467H158.979V36.6719C158.979 41.1122 156.838 43.5595 152.036 43.5595C149.004 43.5595 146.288 42.9847 145.547 39.5919H139.595C140.115 45.914 146.223 47.9998 151.646 47.9998C160.156 47.9998 164.912 43.9766 164.912 35.8839L164.93 35.8654Z" fill="#E51E25"/>
</g>
<path d="M188.207 21.4227H174.302C174.46 17.3995 177.278 14.2663 181.403 14.2663C185.528 14.2663 187.984 17.6591 188.188 21.4227H188.207ZM181.431 9.56641C173.384 9.56641 168.369 16.1481 168.369 23.8236C168.369 32.1666 173.125 38.0253 181.588 38.0253C187.484 38.0253 192.499 34.7344 193.806 28.8387H188.161C187.122 31.8144 185.027 33.3254 181.588 33.3254C176.619 33.3254 174.33 29.6174 174.33 25.3347H194.168C195.159 17.242 189.94 9.57568 181.431 9.57568V9.56641Z" fill="#E51E25"/>
<path d="M196.838 37.2931H202.752V21.3672C202.752 17.3997 205.311 14.2664 209.241 14.2664C212.745 14.2664 214.414 16.1204 214.516 20.329V37.2931H220.467V18.7531C220.467 12.6905 216.759 9.55725 210.91 9.55725C209.21 9.54881 207.538 9.98816 206.062 10.8311C204.586 11.6741 203.358 12.8909 202.502 14.3591L202.4 14.2571V10.2988H196.764V37.2931H196.838Z" fill="#E51E25"/>
<path d="M71.6828 0L69.9123 5.6825L63.9424 5.67323L65.7037 0H71.6828Z" fill="#E51E25"/>
<path d="M8.7673 0L6.99673 5.6825L1.02686 5.67323L2.78815 0H8.7673Z" fill="#E51E25"/>
</svg>
