<svg width="133" height="42" viewBox="0 0 133 42" fill="none" xmlns="http://www.w3.org/2000/svg">
<path fill-rule="evenodd" clip-rule="evenodd" d="M41.6316 0H8.84211C8.47369 0 8.10526 0.36842 8.47369 0.736841C8.47369 1.47368 9.57895 1.47368 9.57895 1.47368C10.6842 1.47368 11.4211 1.47368 12.1579 1.84211C12.8947 2.21053 13.2632 2.94737 12.8947 3.68421L0 42H14.7368L19.5263 28C22.4737 28 26.1579 28 29.1053 27.6316C29.3476 27.5912 29.5944 27.5508 29.8441 27.5099L29.8451 27.5098C31.8731 27.1778 34.0969 26.8139 35.7368 26.1579C37.9474 25.4211 41.6316 23.5789 42.7368 21.3684C43.4737 20.2632 47.8947 7.73684 47.8947 4.78947C48.2632 0.368418 41.6316 0 41.6316 0ZM33.8947 4.05263C33.8947 5.1579 28.3684 22.4737 27.6316 22.8421C26.8947 23.579 26.5263 23.9474 24.6842 24.3158C23.2105 25.0526 21.7369 25.0526 19.8948 25.0526L26.8947 2.94737H33.1579C33.1579 3.09997 33.2843 3.18937 33.4324 3.2941C33.6419 3.44221 33.8947 3.621 33.8947 4.05263ZM83.633 0.368781H50.8435C50.4751 0.368781 50.1067 0.737201 50.1067 1.10562C50.1067 1.84246 51.212 1.84246 51.212 1.84246C52.3172 1.84246 53.0541 1.84247 53.7909 2.21089C54.5278 2.21089 54.8962 3.31615 54.5278 3.68457L42.0014 41.6319H56.7383L61.5278 27.6319C64.4751 27.6319 68.1593 27.6319 71.1067 27.2635C71.3494 27.2231 71.5965 27.1826 71.8465 27.1417C73.8746 26.8098 76.0984 26.4458 77.7383 25.7898C79.9488 25.053 83.633 23.2109 85.1067 21.0004C85.8436 19.8951 90.2646 7.36878 90.2646 4.42141C90.2646 0.368782 83.633 0.368781 83.633 0.368781ZM75.8962 4.05299C75.8962 5.15826 70.3699 22.474 69.633 22.8425C68.8962 23.5793 68.5278 23.9477 66.6857 24.3162C65.212 24.6846 63.7383 24.6846 61.8962 24.6846L69.2646 2.57931H75.1593C75.1593 3.2046 75.5131 3.47614 75.7536 3.66077C75.9382 3.80249 76.0562 3.893 75.8962 4.05299ZM92.8414 0.368781H125.262C125.262 0.368781 132.262 1.10562 132.999 4.78983C132.999 7.22866 128.415 20.2311 125.844 27.5246C124.919 30.1472 124.255 32.0317 124.157 32.4214C123.052 35.3688 120.841 37.2109 118.262 38.3162C116.052 39.4214 110.157 41.6319 107.578 41.6319H83.9993L96.5256 3.68457C96.894 3.31615 96.5256 2.21089 95.7888 2.21089C95.0519 1.84247 94.3151 1.84246 93.2098 1.84246C93.2098 1.84246 92.1045 1.84246 92.1045 1.10562C92.1045 0.737201 92.473 0.368781 92.8414 0.368781ZM106.841 37.2109C107.578 36.474 117.526 5.52668 117.526 4.42141C117.526 3.98978 117.273 3.81099 117.063 3.66288C116.915 3.55815 116.789 3.46875 116.789 3.31615H110.894L99.1045 39.053C100.947 39.053 102.42 39.053 103.894 38.6846C104.999 38.3162 106.105 37.9477 106.841 37.2109Z" fill="#55595B"/>
</svg>
