<svg width="40" height="40" viewBox="0 0 40 40" fill="none" xmlns="http://www.w3.org/2000/svg">
<g id="Group 145">
<path id="24twitter 1 (Stroke)" fill-rule="evenodd" clip-rule="evenodd" d="M20 40C8.95431 40 0 31.0457 0 20C0 8.95431 8.95431 0 20 0C31.0457 0 40 8.95431 40 20C40 31.0457 31.0457 40 20 40Z" fill="#117EB8"/>
<path id="Shape" fill-rule="evenodd" clip-rule="evenodd" d="M11.3636 16.4133H15.3732V29.3142H11.3636V16.4133ZM13.369 10.0004C14.6511 10.0004 15.6928 11.0421 15.6928 12.3242C15.6928 13.6075 14.6511 14.6496 13.369 14.6496C13.06 14.6554 12.753 14.5996 12.4658 14.4854C12.1787 14.3712 11.9172 14.2009 11.6966 13.9845C11.476 13.7681 11.3008 13.5098 11.1812 13.2249C11.0616 12.94 11 12.634 11 12.325C11 12.016 11.0616 11.71 11.1812 11.4251C11.3008 11.1402 11.476 10.8819 11.6966 10.6655C11.9172 10.4491 12.1787 10.2788 12.4658 10.1646C12.753 10.0504 13.06 9.99457 13.369 10.0004ZM17.8882 16.4129H21.734V18.1758H21.7873C22.3228 17.1617 23.6307 16.0925 25.5811 16.0925C29.6411 16.0925 30.3911 18.7646 30.3911 22.2383V29.3142H26.384V23.0404C26.384 21.5446 26.3565 19.62 24.3007 19.62C22.2144 19.62 21.894 21.2496 21.894 22.9325V29.3142H17.8878V16.4133L17.8882 16.4129Z" fill="white"/>
</g>
</svg>
