<svg width="147" height="32" viewBox="0 0 147 32" fill="none" xmlns="http://www.w3.org/2000/svg">
<path fill-rule="evenodd" clip-rule="evenodd" d="M14.5905 3.77126V0.685547H0.609497V3.80936H5.4095V17.3332H9.75235V3.77126H14.5905ZM68.3809 17.2951C68.2666 16.1903 68.1904 15.3522 68.1904 14.7427V9.14269C68.1904 6.81888 66.4762 5.37126 64.2285 5.37126C62.5905 5.40936 61.1809 6.13317 60.3809 7.4284C59.8857 6.13317 58.4762 5.44745 57.1428 5.44745C55.5428 5.44745 54.1714 5.98078 53.4095 7.4284L53.3333 5.71412H49.3714V17.2951H53.4857V10.2855C53.4857 9.90459 53.3333 7.92364 55.2 7.92364C56.4571 7.92364 56.7619 9.0665 56.7619 10.1713V17.257H60.8381V10.2855C60.8381 9.90459 60.6857 7.92364 62.5524 7.92364C63.8095 7.92364 64.1143 9.0665 64.1143 10.1713V17.257L68.3809 17.2951ZM48.4571 9.10459V5.56174C46.6666 5.52364 45.3333 6.13317 44.8 7.88555L44.7238 5.67602H40.6095C40.6857 6.6284 40.6857 7.88555 40.6857 8.64745V17.257H44.8V12.1903C44.8 10.2855 45.3714 9.10459 47.619 9.0665C47.8857 9.0665 48.1524 9.0665 48.4571 9.10459ZM75.4666 5.37126C71.6952 5.37126 69.219 7.4665 69.219 11.4665C69.219 15.5808 71.6952 17.5998 75.4666 17.5998C79.2381 17.5998 81.7143 15.5427 81.7143 11.4665C81.6762 7.4665 79.2 5.37126 75.4666 5.37126ZM75.4666 7.80936C77.1809 7.80936 77.5238 9.59983 77.5238 11.3903C77.5238 13.5236 77.1428 15.1617 75.4666 15.1617C73.7905 15.1617 73.4095 13.4855 73.4095 11.3903C73.4095 9.56174 73.7143 7.77126 75.4666 7.80936ZM27.1619 17.2951C27.0476 16.1903 27.0095 15.3903 27.0095 14.7427V9.14269C27.0095 6.81888 25.2952 5.37126 23.0095 5.37126C22.3238 5.37126 21.6381 5.48555 21.0666 5.75221C20.5333 6.01888 20.0381 6.36174 19.5809 6.93317V0.685547H15.5428V17.2951H19.6571V10.2855C19.6571 9.90459 19.5047 7.92364 21.3714 7.92364C22.6666 7.92364 22.9333 9.0665 22.9333 10.1713V17.257L27.1619 17.2951ZM39.6952 12.2665C39.7333 8.11412 38.4762 5.37126 33.8285 5.37126C30.1714 5.37126 27.9619 7.61888 27.9619 11.1617C27.9619 15.5046 29.5238 17.5998 34.019 17.5998C35.4285 17.5998 36.6857 17.2951 37.6 16.6475C38.6285 15.9617 39.4285 14.9332 39.5428 13.4855H35.7333C35.619 14.5522 35.0095 15.276 33.7905 15.276C32.2285 15.276 31.8857 13.7903 31.9238 12.3427H39.6952V12.2665ZM35.7714 10.057H31.9619C32.0381 8.83793 32.3428 7.58079 33.8666 7.50459C34.5524 7.4665 35.0095 7.80936 35.3143 8.30459C35.6571 8.79983 35.7714 9.44745 35.7714 10.057Z" fill="#EBEBEC"/>
<path fill-rule="evenodd" clip-rule="evenodd" d="M145.752 8.87603V5.33318C143.962 5.29508 142.629 5.9046 142.095 7.65698L142.019 5.63794H137.905C137.981 6.59032 137.981 7.84746 137.981 8.60937V17.2189H142.095V12.1903C142.095 10.2856 142.667 8.91413 144.914 8.83794C145.181 8.87603 145.448 8.87603 145.752 8.87603ZM124.457 17.2951C124.343 16.1903 124.305 15.3903 124.305 14.7427V9.1427C124.305 6.81889 122.59 5.37127 120.305 5.37127C119.619 5.37127 119.009 5.48556 118.4 5.75222C117.867 6.01889 117.333 6.36175 116.876 6.93318V0.685556H112.762V17.2951H116.876V10.2856C116.876 9.9046 116.724 7.92365 118.59 7.92365C119.886 7.92365 120.152 9.06651 120.152 10.1713V17.257L124.457 17.2951ZM111.771 13.8284C111.771 12.0379 110.819 11.1617 109.524 10.6665C107.048 9.79032 105.219 9.75222 105.219 8.83794C105.219 8.15222 105.6 7.77127 106.286 7.77127C106.819 7.77127 107.162 7.92365 107.39 8.15222C107.581 8.38079 107.695 8.76175 107.695 9.25698H111.581C111.505 6.20937 109.105 5.40937 106.476 5.40937C104.228 5.40937 101.333 6.20937 101.333 8.99032C101.333 13.0284 107.886 11.9998 107.886 14.1332C107.886 14.8951 107.276 15.2379 106.476 15.2379C106.019 15.2379 105.638 15.0094 105.409 14.6665C105.181 14.3617 105.105 13.9427 105.143 13.5237H101.219C101.143 16.9903 103.695 17.5998 106.552 17.5998C109.219 17.5998 111.771 16.6475 111.771 13.8284ZM136.952 12.2665C136.99 8.11413 135.733 5.37127 131.086 5.37127C127.429 5.37127 125.219 7.61889 125.219 11.1617C125.219 15.5046 126.743 17.5998 131.276 17.5998C132.686 17.5998 133.943 17.2951 134.857 16.6475C135.886 15.9617 136.686 14.9332 136.8 13.4856H132.952C132.838 14.5522 132.229 15.276 131.009 15.276C129.448 15.276 129.105 13.7903 129.143 12.3427H136.99V12.2665H136.952ZM133.105 10.057H129.295C129.371 8.83794 129.676 7.58079 131.2 7.5046C131.886 7.46651 132.343 7.80937 132.648 8.3046C132.952 8.79984 133.105 9.44746 133.105 10.057ZM100.229 17.2951V5.67603H96.1142V17.257L100.229 17.2951ZM94.8571 3.69508L95.8095 0.647461H84.7999V17.257H89.1428V10.7427H92.6475L93.5999 7.69508H89.1428V3.69508H94.8571ZM100.229 3.69508L101.219 0.647461H97.1809L96.1904 3.69508H100.229Z" fill="#EBEBEC"/>
<path fill-rule="evenodd" clip-rule="evenodd" d="M38.1713 31.5429V22.1715H39.6571V31.581H38.1713V31.5429ZM139.276 31.6953C136.152 31.6953 133.79 29.9429 133.79 26.8953C133.79 23.8095 136.419 21.9048 139.39 21.9048C140.457 21.9048 141.6 22.2476 142.362 22.7429L141.6 23.6572C140.952 23.2762 140.229 23.0476 139.428 23.0476C138.286 23.0476 137.181 23.3905 136.457 24.1905C135.848 24.8762 135.505 25.7143 135.505 26.9334C135.505 28.2667 135.924 28.9905 136.609 29.6762C137.333 30.4 138.438 30.5905 139.505 30.5905C140.381 30.5905 141.219 30.2857 141.905 29.9048L142.628 30.781C141.828 31.3143 140.533 31.6953 139.276 31.6953ZM123.505 31.5429V22.1715H124.99V31.581H123.505V31.5429ZM89.5237 23.2762H86.019V31.581H84.5714V23.2762H81.0666V22.1334H89.7142L89.5237 23.2762ZM11.3142 31.2C10.5904 31.5429 9.7142 31.7334 8.64754 31.7334C7.3142 31.7334 5.94277 31.4286 4.83801 30.8953L5.44754 29.8286C6.5523 30.3619 7.58087 30.6286 8.72373 30.6286C9.48563 30.6286 9.98087 30.5143 10.438 30.2476C10.9713 29.9429 11.2761 29.5619 11.2761 29.0286C11.2761 28.2286 10.6666 27.7334 9.21897 27.4286L7.69516 27.0857C6.17135 26.7429 5.21897 25.7905 5.21897 24.6476C5.21897 23.0476 6.78087 21.9048 9.06658 21.9048C10.3999 21.9048 11.7713 22.2476 12.6856 22.8191L11.9999 23.8095C11.0856 23.3143 10.1333 23.0476 9.14278 23.0476C7.80944 23.0476 6.85706 23.581 6.85706 24.4572C6.85706 25.1429 7.42849 25.5619 8.72373 25.8667L10.1333 26.2095C10.9333 26.4 11.7713 26.7429 12.2285 27.1619C12.6856 27.581 12.9523 28.2286 12.9523 28.8381C12.9904 29.7905 12.3809 30.7048 11.3142 31.2ZM71.619 31.5429L67.8856 26.5143C67.1999 25.5619 65.9809 23.7334 65.9809 23.7334C65.9809 23.7334 66.0952 25.3334 66.1333 26.7048L66.1714 31.5429H64.6856V22.1715H66.4761L70.2475 27.3143C70.9714 28.3048 71.9999 29.9048 71.9999 29.9048C71.9999 29.9048 71.7714 28.1524 71.7714 26.9334L71.7333 22.2095H73.219V31.6191L71.619 31.5429ZM97.4094 31.5429V22.1715H98.8952V31.581H97.4094V31.5429ZM115.276 23.2762H110.095V26.0572H114.476V27.1619H110.095V31.581H108.609V22.1715H115.467L115.276 23.2762ZM49.4094 31.5429V22.1715H56.3809L56.1904 23.3143H50.9333V26.1334H55.3904V27.2762H50.9333V30.4762H56.5333V31.6191H49.4094V31.5429ZM26.5523 31.6953C23.4285 31.6953 21.0666 29.9429 21.0666 26.8953C21.0666 23.8095 23.6952 21.9048 26.6666 21.9048C27.7333 21.9048 28.8761 22.2476 29.638 22.7429L28.8761 23.6572C28.2285 23.2762 27.5047 23.0476 26.7047 23.0476C25.5618 23.0476 24.4571 23.3905 23.6952 24.1905C23.0856 24.8762 22.7428 25.7143 22.7428 26.9334C22.7428 28.2667 23.1618 28.9905 23.8475 29.6762C24.5713 30.4 25.6761 30.5905 26.7428 30.5905C27.619 30.5905 28.4571 30.2857 29.1428 29.9048L29.8666 30.781C29.1047 31.3143 27.8094 31.6953 26.5523 31.6953Z" fill="#EBEBEC"/>
</svg>
