<svg width="24" height="24" viewBox="0 0 24 24" fill="none" xmlns="http://www.w3.org/2000/svg">
<g id="youtube-168-svgrepo-com" clip-path="url(#clip0_5091_184)">
<g id="Page-1">
<g id="Dribbble-Light-Preview">
<g id="icons">
<path id="youtube-[#168]" fill-rule="evenodd" clip-rule="evenodd" d="M9.58613 15.1029V8.36877C11.9768 9.49368 13.8283 10.5804 16.0181 11.752C14.212 12.7536 11.9768 13.8775 9.58613 15.1029ZM22.9092 5.01955C22.4968 4.47624 21.794 4.05332 21.0457 3.9133C18.8463 3.49564 5.12518 3.49445 2.92698 3.9133C2.32693 4.02579 1.7926 4.29769 1.3336 4.72014C-0.600435 6.51522 0.00559941 16.1417 0.471777 17.701C0.667809 18.3759 0.921228 18.8627 1.24038 19.1822C1.65157 19.6047 2.21456 19.8956 2.86123 20.026C4.67214 20.4006 14.0016 20.61 21.0074 20.0822C21.6529 19.9698 22.2243 19.6695 22.6749 19.2291C24.4631 17.4412 24.3412 7.27417 22.9092 5.01955Z" fill="white"/>
</g>
</g>
</g>
</g>
<defs>
<clipPath id="clip0_5091_184">
<rect width="24" height="24" fill="white"/>
</clipPath>
</defs>
</svg>
